<?xml version="1.0" encoding="utf-8"?>
<!-- Generator: Adobe Illustrator 27.0.0, SVG Export Plug-In . SVG Version: 6.00 Build 0)  -->
<svg version="1.1" id="QRコード" xmlns="http://www.w3.org/2000/svg" xmlns:xlink="http://www.w3.org/1999/xlink" x="0px"
	 y="0px" viewBox="0 0 400 400" style="enable-background:new 0 0 400 400;" xml:space="preserve">
<style type="text/css">
	.st0{fill:#707070;}
</style>
<g id="_グループ_6624">
	<path id="_パス_3037" class="st0" d="M223.8,188.1h95.7c6.1,0.2,11.2-4.5,11.4-10.6c0-0.4,0-0.8,0-1.1V81.1
		c0.3-6.3-4.5-11.7-10.9-12c-0.2,0-0.3,0-0.5,0h-95.7c-6.5,0.1-11.8,5.5-11.7,12v95.3c-0.2,6.3,4.8,11.6,11.1,11.7
		C223.4,188.1,223.6,188.1,223.8,188.1L223.8,188.1z M81.3,188.1h95.3c6.2,0.3,11.4-4.6,11.7-10.8c0-0.3,0-0.6,0-0.9V81.1
		c0.2-6.5-4.9-11.8-11.4-12c-0.1,0-0.2,0-0.3,0H81.3c-6.6,0-12,5.4-12,12v95.3c-0.1,6.4,4.9,11.6,11.3,11.7
		C80.8,188.1,81,188.1,81.3,188.1L81.3,188.1L81.3,188.1z M235.8,164.4V92.8h71.6v71.6L235.8,164.4L235.8,164.4z M93,164.4V92.8
		h71.6v71.6L93,164.4L93,164.4z M256.5,143.3h30.1v-29.8h-30.1V143.3z M114.1,143.3h29.8v-29.8h-29.8
		C114.1,113.5,114.1,143.3,114.1,143.3z M81.3,331h95.3c6.2,0.3,11.4-4.6,11.7-10.8c0-0.3,0-0.6,0-1v-95.4
		c0.1-6.3-4.8-11.6-11.1-11.7c-0.2,0-0.4,0-0.6,0H81.3c-6.5-0.2-11.8,4.9-12,11.4c0,0.1,0,0.2,0,0.3v95.3
		c-0.1,6.4,4.9,11.6,11.3,11.7C80.8,331,81.1,331,81.3,331L81.3,331L81.3,331z M215.4,245h29.8v-29.8h-29.8V245z M297.7,245h29.8
		v-29.8h-29.8V245z M93,307.2v-71.6h71.6v71.6H93L93,307.2z M114.1,286.5h29.8v-30.1h-29.8V286.5z M256.5,286.5h29.8v-30.1h-29.8
		V286.5z M215.4,327.3h29.8v-29.8h-29.8V327.3z M297.7,327.3h29.8v-29.8h-29.8V327.3z"/>
	<path id="_パス_3038" class="st0" d="M390.7,125.9c4.7,0.4,8.9-3,9.3-7.7c0.1-0.6,0-1.2,0-1.8V58.7c0-38.2-20.2-58.7-59-58.7
		h-57.6c-5.1,0-9.3,4.1-9.3,9.2s4.1,9.3,9.2,9.3h57.2c25.9,0,41,14.2,41,41.2v56.5c-0.6,4.7,2.8,8.9,7.4,9.5
		C389.4,125.9,390,125.9,390.7,125.9L390.7,125.9z M9.4,125.9c4.7,0.4,8.9-3,9.3-7.7c0.1-0.6,0-1.2,0-1.8V59.8
		c0-27,14.2-41.2,41-41.2h56.8c5.1,0.2,9.5-3.7,9.7-8.8c0.2-5.1-3.7-9.5-8.8-9.7c-0.3,0-0.6,0-0.9,0H59c-38.8,0-59,20.2-59,58.7
		v57.6c-0.6,4.7,2.8,9,7.5,9.5C8.1,125.9,8.7,125.9,9.4,125.9L9.4,125.9L9.4,125.9z M283.4,400H341c38.8,0,59-20.5,59-58.7v-57.3
		c0.2-5.1-3.7-9.5-8.8-9.7s-9.5,3.7-9.7,8.9c0,0.3,0,0.6,0,0.9v56.5c0,27-15,41-41,41h-57c-5.1,0.2-9.1,4.5-9,9.6
		C274.5,395.9,278.4,399.8,283.4,400L283.4,400L283.4,400z M59,400h57.3c5.1,0.2,9.4-3.9,9.6-9s-3.9-9.4-9-9.6c-0.2,0-0.4,0-0.6,0
		H59.6c-26.8,0-41-13.9-41-41v-56.5c0.2-5.1-3.9-9.4-9-9.6c-5.1-0.2-9.4,3.9-9.6,9c0,0.2,0,0.4,0,0.6v57.3C0,380,20.2,400,59,400
		L59,400L59,400z"/>
</g>
</svg>
