<svg xmlns="http://www.w3.org/2000/svg" width="30" height="30" viewBox="0 0 30 30">
  <path id="路径_3261" data-name="路径 3261" d="M10.158,43.684H29.7A4.881,4.881,0,0,0,33.4,42.321a5.612,5.612,0,0,0,1.309-4.035V19.063a5.4,5.4,0,0,0-1.381-4.017,5.564,5.564,0,0,0-4.071-1.363h-19.1a5.564,5.564,0,0,0-4.071,1.363,5.4,5.4,0,0,0-1.381,4.017V38.286a5.43,5.43,0,0,0,1.381,4.035A5.564,5.564,0,0,0,10.158,43.684Zm.126-3.048a2.525,2.525,0,0,1-1.865-.646,2.6,2.6,0,0,1-.646-1.919V19.3a2.6,2.6,0,0,1,.646-1.919,2.525,2.525,0,0,1,1.865-.646H29.13A2.28,2.28,0,0,1,31.659,19.3V38.071a2.725,2.725,0,0,1-.6,1.919,1.922,1.922,0,0,1-1.461.646Zm8.069.484H30.4a2.912,2.912,0,0,0,1.479-.314A1.752,1.752,0,0,0,32.627,40a2.594,2.594,0,0,0,.215-1.049A5.369,5.369,0,0,0,31.748,36.3a7.483,7.483,0,0,0-2.663-2.206,8.6,8.6,0,0,0-4.008-.879,8.889,8.889,0,0,0-3.273.574,8.165,8.165,0,0,0-2.493,1.5,6.842,6.842,0,0,0-1.578,2.008,4.668,4.668,0,0,0-.547,2.107,2.1,2.1,0,0,0,.332,1.291A1.013,1.013,0,0,0,18.353,41.119ZM25.078,31.2A3.471,3.471,0,0,0,27.7,30.02a4.492,4.492,0,0,0,.6-5.012,3.858,3.858,0,0,0-1.354-1.435,3.542,3.542,0,0,0-3.739.009,3.936,3.936,0,0,0-1.372,1.461,4.359,4.359,0,0,0,.619,4.976A3.48,3.48,0,0,0,25.078,31.2ZM14.3,33.193a7.337,7.337,0,0,0-3.6.852,6.816,6.816,0,0,0-2.421,2.161,5.1,5.1,0,0,0-.932,2.654,2.6,2.6,0,0,0,.493,1.6,2,2,0,0,0,1.712.663h5.989A4.38,4.38,0,0,1,15.2,39.4a6.5,6.5,0,0,1,.681-2.9,8.4,8.4,0,0,1,1.865-2.484A5.12,5.12,0,0,0,16.21,33.4,8.277,8.277,0,0,0,14.3,33.193Zm0-1.757a3.007,3.007,0,0,0,2.286-1.04,3.664,3.664,0,0,0,.959-2.582,3.442,3.442,0,0,0-.968-2.5,3.076,3.076,0,0,0-2.277-1,3.108,3.108,0,0,0-2.3,1.013,3.447,3.447,0,0,0-.986,2.5A3.6,3.6,0,0,0,12,30.4,3.062,3.062,0,0,0,14.3,31.436Z" transform="translate(-4.707 -13.684)" fill="rgba(29,29,31,0.9)"/>
</svg>
