<svg xmlns="http://www.w3.org/2000/svg" width="30" height="30" viewBox="0 0 30 30">
  <g id="组_5592" data-name="组 5592" transform="translate(660 -392)">
    <rect id="矩形_1822" data-name="矩形 1822" width="30" height="30" transform="translate(-660 392)" fill="none"/>
    <g id="组_5591" data-name="组 5591" transform="translate(-24.216 -20)">
      <path id="路径_3070" data-name="路径 3070" d="M19.5,27.33l-1.56.9,2.773,1.612-5.539,3.216L9.642,29.845l2.766-1.612-1.56-.9L6.53,29.845l8.644,5.021,8.644-5.021Z" transform="translate(-636.314 407.134)" fill="rgba(29,29,31,0.9)"/>
      <path id="路径_3071" data-name="路径 3071" d="M15.522,24.03l6.848-9.787a9.353,9.353,0,0,0,1.788-5.368A8.727,8.727,0,0,0,15.514.07a8.727,8.727,0,0,0-8.644,8.8,9.3,9.3,0,0,0,1.8,5.368Zm0-20.6A5.4,5.4,0,0,1,20.87,8.875a5.349,5.349,0,1,1-10.7,0A5.4,5.4,0,0,1,15.522,3.427Z" transform="translate(-636.654 411.93)" fill="rgba(29,29,31,0.9)"/>
    </g>
  </g>
</svg>
