<?xml version="1.0" encoding="utf-8"?>
<!-- Generator: Adobe Illustrator 27.9.1, SVG Export Plug-In . SVG Version: 6.00 Build 0)  -->
<svg version="1.1" id="_レイヤー_8" xmlns="http://www.w3.org/2000/svg" xmlns:xlink="http://www.w3.org/1999/xlink" x="0px"
	 y="0px" viewBox="0 0 100 100" style="enable-background:new 0 0 100 100;" xml:space="preserve">
<style type="text/css">
	.st0{fill:#174A84;}
</style>
<path id="パス_11424" class="st0" d="M50,100c6.6,0,13.2-1.3,19.3-3.9c12-5.2,21.6-14.8,26.8-26.8c5.2-12.4,5.2-26.3,0-38.6
	c-2.6-6-6.3-11.4-10.8-16c-4.6-4.6-10-8.3-16-10.8C63.2,1.3,56.6,0,50,0c-6.6,0-13.2,1.3-19.3,3.9C18.7,9.1,9.1,18.6,3.9,30.7
	C-1.3,43-1.3,57,3.9,69.3c5.2,12,14.8,21.5,26.7,26.7C36.8,98.7,43.4,100,50,100z M37.3,79.4c-1.5,0.1-3-0.4-4.1-1.4
	c-1.1-1.1-1.6-2.6-1.6-4.1l-1.7-39.1h-3.9c-0.6,0-1.2-0.2-1.6-0.6c-0.4-0.4-0.7-1-0.7-1.6c0-0.6,0.2-1.2,0.7-1.6
	c0.4-0.4,1-0.7,1.6-0.7h11.8v-3.9c-0.1-1.9,0.6-3.7,2-5c1.5-1.3,3.4-2,5.4-1.9h9.8c2-0.1,3.9,0.6,5.4,1.9c1.3,1.3,2.1,3.1,2,5v3.9
	H74c0.6,0,1.2,0.2,1.7,0.7c0.4,0.4,0.7,1,0.6,1.6c0,0.6-0.2,1.2-0.6,1.6c-0.4,0.4-1.1,0.7-1.7,0.6h-3.8l-1.7,39.1
	c0,1.5-0.6,3-1.6,4.1c-1.2,1-2.6,1.5-4.2,1.4L37.3,79.4z M41.4,71.6c1.2,0,1.8-0.6,1.8-1.8l-0.9-29c0.1-0.9-0.6-1.7-1.5-1.8
	c-0.1,0-0.3,0-0.4,0c-1.3,0-1.9,0.6-1.8,1.8l0.9,29c-0.1,0.9,0.6,1.7,1.5,1.8C41.2,71.7,41.3,71.7,41.4,71.6L41.4,71.6z M50,71.6
	c1.3,0,1.9-0.6,1.9-1.8v-29c0-1.2-0.6-1.7-1.9-1.7c-1.3,0-1.9,0.6-1.9,1.7v29c-0.1,0.9,0.5,1.7,1.4,1.8C49.7,71.7,49.8,71.7,50,71.6
	L50,71.6z M58.5,71.6c1.2,0,1.9-0.6,1.9-1.7l1-29c0-1-0.9-1.8-1.9-1.8c-1,0-1.7,0.8-1.8,1.7l-1,29c-0.1,0.9,0.5,1.7,1.3,1.8
	C58.2,71.7,58.3,71.7,58.5,71.6L58.5,71.6z M43,30.3h13.9v-3.6c0-0.6-0.2-1.2-0.6-1.5c-0.5-0.4-1-0.6-1.6-0.6h-9.3
	c-0.6,0-1.2,0.2-1.7,0.6c-0.4,0.4-0.7,1-0.6,1.5L43,30.3z"/>
</svg>
