<?xml version="1.0" encoding="utf-8"?>
<!-- Generator: Adobe Illustrator 27.0.0, SVG Export Plug-In . SVG Version: 6.00 Build 0)  -->
<svg version="1.1" id="_レイヤー_8" xmlns="http://www.w3.org/2000/svg" xmlns:xlink="http://www.w3.org/1999/xlink" x="0px"
	 y="0px" viewBox="0 0 100 100" style="enable-background:new 0 0 100 100;" xml:space="preserve">
<style type="text/css">
	.st0{fill:#0A4B6D;}
</style>
<path id="パス_11816" class="st0" d="M50,100c6.6,0,13.1-1.3,19.2-3.9c6-2.6,11.4-6.3,16-10.9c4.6-4.6,8.3-10,10.9-16
	c2.7-6.1,4-12.7,4-19.3c0.1-8.8-2.3-17.5-6.8-25.1C88.8,17.4,82.5,11.2,75,6.8c-15.5-9-34.6-9-50.1,0c-7.5,4.4-13.7,10.7-18.1,18.1
	c-7.9,13.5-9,30-2.9,44.4c2.5,6,6.2,11.4,10.8,16c4.6,4.6,10,8.3,16,10.8C36.8,98.7,43.3,100,50,100z M50,82.3
	c-4.8,0-8.7-3.8-8.7-8.6c0,0,0,0,0-0.1c0-2.3,0.9-4.5,2.5-6c3.4-3.4,8.9-3.4,12.3,0c1.6,1.6,2.6,3.8,2.5,6
	C58.7,78.4,54.8,82.3,50,82.3C50,82.3,50,82.3,50,82.3z M50,58.4c-1.7,0.1-3.3-0.5-4.5-1.7c-1.1-1.1-1.8-2.7-1.8-4.3l-0.8-27.8
	c-0.1-1.9,0.5-3.8,1.9-5.1c3-2.7,7.5-2.7,10.5,0c1.3,1.4,2,3.2,1.9,5.1l-0.8,27.8c0,1.6-0.6,3.2-1.8,4.3
	C53.3,57.8,51.6,58.4,50,58.4L50,58.4z"/>
</svg>
