<?xml version="1.0" standalone="no"?><!DOCTYPE svg PUBLIC "-//W3C//DTD SVG 1.1//EN" "http://www.w3.org/Graphics/SVG/1.1/DTD/svg11.dtd"><svg t="1663664698329" class="icon" viewBox="0 0 1024 1024" version="1.1" xmlns="http://www.w3.org/2000/svg" p-id="1190" xmlns:xlink="http://www.w3.org/1999/xlink" width="32" height="32"><path d="M512 32c121.024 0 219.808 94.784 223.872 213.472L736 253.12V384h128a64 64 0 0 1 64 64v480a64 64 0 0 1-64 64H160a64 64 0 0 1-64-64V448a64 64 0 0 1 64-64h128V253.12C288 130.88 388.384 32 512 32z m0 512a32 32 0 0 0-32 32v192a32 32 0 0 0 64 0v-192a32 32 0 0 0-32-32z m0-448c-86.144 0-156.224 66.784-159.84 150.272L352 253.12V384h320V253.12C672 166.4 600.48 96 512 96z" p-id="1191"></path></svg>