<?xml version="1.0" encoding="utf-8"?>
<!-- Generator: Adobe Illustrator 27.0.0, SVG Export Plug-In . SVG Version: 6.00 Build 0)  -->
<svg version="1.1" id="_レイヤー_8" xmlns="http://www.w3.org/2000/svg" xmlns:xlink="http://www.w3.org/1999/xlink" x="0px"
	 y="0px" viewBox="0 0 197 197" style="enable-background:new 0 0 197 197;" xml:space="preserve">
<style type="text/css">
	.st0{opacity:0.3;fill:#1D1D1F;}
</style>
<path id="_パス_3487" class="st0" d="M98.6,197c13.1,0.1,26-2.6,38-7.8c23.7-10.2,42.5-29.1,52.7-52.7c5.2-12,7.8-25,7.7-38.1
	c0.1-13.1-2.6-26-7.8-38c-5.1-11.7-12.3-22.4-21.3-31.5c-9-9.1-19.7-16.3-31.4-21.3c-12-5.1-24.9-7.7-38-7.7
	c-13.1-0.1-26,2.5-38,7.7C36.8,17.9,17.9,36.8,7.7,60.5c-5.2,12-7.8,25-7.7,38c-0.1,13.1,2.5,26.1,7.8,38.1
	C18,160.2,36.8,179,60.5,189.3C72.5,194.5,85.5,197.1,98.6,197L98.6,197z M69.7,151.1c-1.6,0.1-3.2-0.6-4.3-1.8
	c-1.1-1.4-1.7-3.2-1.6-5V61.5c-0.3-4.1,1-8.1,3.7-11.2c3-2.7,7-4,11.1-3.8h39.9c4-0.3,8,1.1,11.1,3.8c2.7,3.1,4.1,7.1,3.8,11.2v82.8
	c0.1,1.8-0.5,3.6-1.6,5c-2.1,2.2-5.5,2.4-7.9,0.5c-1.1-0.9-2.7-2.4-5-4.6L99,125.7c-0.2-0.2-0.6-0.3-0.9-0.1c0,0,0,0-0.1,0.1
	l-19.8,19.5c-2.2,2.2-3.9,3.7-5,4.6C72.2,150.6,71,151.1,69.7,151.1L69.7,151.1z"/>
</svg>
