<?xml version="1.0" encoding="utf-8"?>
<!-- Generator: Adobe Illustrator 27.0.0, SVG Export Plug-In . SVG Version: 6.00 Build 0)  -->
<svg version="1.1" id="_ダウンロード" xmlns="http://www.w3.org/2000/svg" xmlns:xlink="http://www.w3.org/1999/xlink"
	 x="0px" y="0px" viewBox="0 0 400 400" style="enable-background:new 0 0 400 400;" xml:space="preserve">
<style type="text/css">
	.st0{fill:#707070;}
</style>
<g>
	<path id="_パス_3233" class="st0" d="M164.8,213.6c-0.1,2,0.6,3.9,1.9,5.4l27.4,27.5c1.5,1.7,3.6,2.7,5.9,2.8
		c2.3,0,4.4-1,5.9-2.8l27.5-27.5c1.4-1.4,2.1-3.4,1.9-5.4c0.1-2-0.6-3.9-2.1-5.2c-1.4-1.3-3.3-2-5.2-1.9c-2.1-0.2-4.1,0.7-5.4,2.3
		l-9.1,8.9l-6.5,8.4l0.6-16v-35.9c0.1-2.1-0.7-4.1-2.2-5.5c-1.5-1.4-3.5-2.1-5.5-2.1c-2-0.1-4,0.7-5.5,2.1c-1.4,1.4-2.2,3.4-2.1,5.5
		v35.9l0.6,16l-6.8-8.4l-8.9-8.9c-1.3-1.6-3.3-2.5-5.4-2.3c-1.9-0.1-3.8,0.6-5.2,1.9C165.4,209.7,164.7,211.6,164.8,213.6
		L164.8,213.6z M165.4,299.8h69c3.1,0.1,6.1-1,8.4-3.2c2.2-2.3,3.3-5.5,3.2-8.7v-16c0.2-3.2-1-6.3-3.2-8.7c-2.2-2.2-5.3-3.3-8.4-3.2
		h-69c-3.1-0.1-6.1,1-8.3,3.2c-2.2,2.3-3.4,5.5-3.2,8.7v16c-0.2,3.2,1,6.4,3.2,8.7C159.3,298.8,162.4,299.9,165.4,299.8L165.4,299.8
		L165.4,299.8z M113.8,305.4c-0.4,9.5,3.3,18.7,10.1,25.3c7.2,6.6,16.8,10.1,26.5,9.7H250c9.7,0.4,19.1-3,26.2-9.6
		c6.8-6.7,10.4-15.9,10-25.3V94.6c0.4-9.5-3.2-18.7-10-25.3c-7.1-6.6-16.5-10.1-26.2-9.6h-99.6c-9.8-0.5-19.4,3-26.6,9.6
		c-6.8,6.6-10.4,15.8-10.1,25.3L113.8,305.4L113.8,305.4z M137.2,300.6V99.4c-0.3-4.4,1.3-8.7,4.4-11.8c3.4-2.9,7.8-4.4,12.3-4.1
		h92.2c4.5-0.3,8.9,1.2,12.3,4.1c3.1,3.2,4.7,7.5,4.4,11.8v201.2c0.2,4.4-1.4,8.6-4.4,11.8c-3.4,3-7.8,4.5-12.3,4.2H154
		c-4.5,0.3-8.9-1.2-12.3-4.1C138.5,309.3,136.9,305,137.2,300.6L137.2,300.6L137.2,300.6z"/>
	<path id="_パス_3235" class="st0" d="M200,20c-99.4,0-180,80.6-180,180c0,47.7,19,93.5,52.7,127.3c70.3,70.3,184.3,70.3,254.6,0
		s70.3-184.3,0-254.6C293.6,38.9,247.8,19.9,200,20 M200,0c110.5,0,200,89.5,200,200s-89.5,200-200,200S0,310.5,0,200S89.6,0,200,0z
		"/>
</g>
</svg>
