<?xml version="1.0" encoding="UTF-8"?><svg id="_レイヤー_1" xmlns="http://www.w3.org/2000/svg" viewBox="0 0 80 80"><defs><style>.cls-1{fill:#d93025;}</style></defs><path id="_パス_3291" class="cls-1" d="M40.02,80c5.31,.03,10.57-1.04,15.44-3.15,9.61-4.14,17.27-11.8,21.41-21.41,2.1-4.88,3.17-10.15,3.13-15.46,.03-5.31-1.04-10.57-3.15-15.44-2.06-4.77-5-9.11-8.67-12.78-3.66-3.68-7.99-6.62-12.76-8.65C50.54,1.03,45.28-.03,39.98,0c-5.3-.03-10.55,1.02-15.42,3.11C14.93,7.24,7.26,14.92,3.13,24.54,1.04,29.42-.03,34.67,0,39.98c-.04,5.32,1.04,10.58,3.15,15.46,4.16,9.6,11.81,17.25,21.41,21.41,4.88,2.11,10.14,3.19,15.46,3.15Zm-15.48-36.35c-1.05,.04-2.08-.29-2.9-.95-.77-.66-1.18-1.63-1.13-2.64-.06-1.02,.35-2.01,1.11-2.7,.82-.67,1.86-1.02,2.92-.97h31.04c1.05-.05,2.08,.29,2.88,.97,.74,.7,1.13,1.68,1.07,2.7,.05,1-.36,1.97-1.11,2.64-.8,.65-1.81,.99-2.84,.95H24.54Z"/></svg>