<svg xmlns="http://www.w3.org/2000/svg" width="71.844" height="56.379" viewBox="0 0 71.844 56.379">
  <path id="路径_3328" data-name="路径 3328" d="M71.062,48.775,53,31.879a6.9,6.9,0,0,0-2.167-1.393,6.42,6.42,0,0,0-2.386-.464,6.656,6.656,0,0,0-2.389.434,6.905,6.905,0,0,0-2.167,1.362l-13.74,12.3-5.616-5.1a7.816,7.816,0,0,0-1.993-1.283,5.259,5.259,0,0,0-2.119-.448,4.83,4.83,0,0,0-1.982.432,7.391,7.391,0,0,0-1.905,1.267L5,49.332q.116,4.184,1.962,6.313a6.826,6.826,0,0,0,5.453,2.129H62.445q4.383,0,6.537-2.29T71.062,48.775ZM25.486,32.392A6.857,6.857,0,0,0,29.1,31.4a7.5,7.5,0,0,0,2.611-2.627,7.227,7.227,0,0,0,0-7.244A7.462,7.462,0,0,0,29.1,18.891a7.152,7.152,0,0,0-7.258,0,7.475,7.475,0,0,0-2.612,2.641,7.217,7.217,0,0,0,0,7.244A7.513,7.513,0,0,0,21.841,31.4,6.915,6.915,0,0,0,25.486,32.392ZM12.124,60.15h52.3q4.871,0,7.322-2.436T74.2,50.5V13.426q0-4.78-2.452-7.218T64.423,3.771h-52.3q-4.838,0-7.3,2.437T2.354,13.426V50.5q0,4.783,2.466,7.219T12.124,60.15Zm.216-5.483a4.56,4.56,0,0,1-3.335-1.149A4.582,4.582,0,0,1,7.837,50.1V13.819a4.63,4.63,0,0,1,1.17-3.444,4.556,4.556,0,0,1,3.335-1.151H64.207a4.612,4.612,0,0,1,3.352,1.151,4.6,4.6,0,0,1,1.184,3.444V50.1a4.548,4.548,0,0,1-1.184,3.414,4.617,4.617,0,0,1-3.352,1.149Z" transform="translate(-2.354 -3.771)" fill="rgba(29,29,31,0.3)"/>
</svg>
