<?xml version="1.0" encoding="UTF-8"?><svg id="_レイヤー_8" xmlns="http://www.w3.org/2000/svg" viewBox="0 0 200.01 200"><path id="_パス_3460" d="M100.05,200c13.27,.08,26.42-2.6,38.6-7.88,24.02-10.36,43.16-29.51,53.53-53.52,10.45-24.69,10.43-52.57-.05-77.25-5.14-11.92-12.49-22.77-21.66-31.96-9.14-9.19-19.98-16.53-31.91-21.61C126.35,2.57,113.21-.08,99.95,0c-13.25-.08-26.37,2.56-38.55,7.77C37.34,18.11,18.16,37.29,7.82,61.35c-10.45,24.69-10.43,52.57,.05,77.25,10.4,23.99,29.54,43.12,53.53,53.52,12.2,5.28,25.36,7.96,38.65,7.88h0Zm0-18.32c-10.92,.08-21.75-2.07-31.81-6.33-19.64-8.3-35.26-23.94-43.54-43.59-17.58-41.59,1.88-89.56,43.47-107.14h.02c10.05-4.23,20.85-6.36,31.76-6.28,21.69-.15,42.53,8.42,57.85,23.78,7.47,7.47,13.43,16.31,17.55,26.04,4.26,10.06,6.41,20.88,6.33,31.81,.15,10.92-1.97,21.75-6.23,31.81-4.11,9.72-10.05,18.56-17.5,26.04-15.33,15.39-36.19,23.98-57.9,23.85v0Zm21.72-42.71l-13.08-12.97c-1.38,.5-2.79,.9-4.22,1.18-1.49,.31-3.01,.46-4.53,.46-4.92,.06-9.77-1.24-14-3.75-4.13-2.47-7.57-5.93-10-10.08-2.49-4.19-3.79-8.97-3.75-13.85-.03-3.06,.53-6.1,1.65-8.95l-18.83-18.85c-4.35,3.08-8.41,6.57-12.12,10.4-2.98,3.03-5.6,6.38-7.82,10-1.51,2.2-2.45,4.75-2.73,7.41,.33,2.98,1.43,5.82,3.19,8.24,2.61,4.02,5.69,7.72,9.16,11.02,4.38,4.23,9.19,7.98,14.36,11.18,5.85,3.65,12.12,6.58,18.69,8.7,7.18,2.31,14.69,3.46,22.23,3.4,3.78,0,7.55-.3,11.27-.92,3.58-.61,7.11-1.48,10.55-2.62h-.02Zm-24.39-24.39l-12.15-12.15c-.07,3.19,1.2,6.25,3.5,8.46,2.24,2.39,5.37,3.73,8.65,3.68h0Zm28.72-5.74l18.84,18.94c4.38-3.06,8.43-6.55,12.1-10.42,2.92-3.05,5.49-6.4,7.69-10,1.51-2.2,2.45-4.75,2.73-7.41-.32-2.97-1.4-5.81-3.14-8.24-2.58-4.03-5.62-7.74-9.06-11.06-4.33-4.25-9.13-8-14.31-11.17-5.87-3.62-12.16-6.51-18.73-8.59-7.21-2.28-14.74-3.41-22.31-3.35-3.77,0-7.54,.28-11.27,.88-3.54,.57-7.04,1.41-10.45,2.52l12.97,12.87c1.39-.49,2.82-.86,4.27-1.13,1.48-.28,2.98-.41,4.48-.42,4.9-.05,9.72,1.23,13.95,3.71,4.14,2.41,7.59,5.86,10,10,2.49,4.24,3.77,9.08,3.71,14,.03,3.02-.47,6.01-1.46,8.86h-.01Zm-23.57-23.55l12.05,12.05c-.06-3.14-1.35-6.14-3.6-8.34-2.19-2.35-5.24-3.69-8.45-3.72v.02h0Zm42.2,66.07c.91,.87,2.14,1.35,3.4,1.34,1.21,.04,2.37-.45,3.19-1.34,.93-.82,1.45-2.01,1.44-3.25,0-1.27-.52-2.48-1.44-3.35L54.99,48.38c-.88-.93-2.12-1.45-3.4-1.44-1.25-.02-2.46,.5-3.29,1.44-1.77,1.8-1.77,4.69,0,6.48l96.42,96.46v.03Z"/></svg>