<svg id="スタンプ-ポイント" xmlns="http://www.w3.org/2000/svg" width="20" height="20" viewBox="0 0 20 20">
  <g id="组_7066" data-name="组 7066" transform="translate(2599 -3079)">
    <path id="路径_3506" data-name="路径 3506" d="M11.656,22.848a9.578,9.578,0,0,0,3.86-.787,10.252,10.252,0,0,0,5.353-5.353,9.9,9.9,0,0,0-.005-7.725,10.309,10.309,0,0,0-2.167-3.2,10.059,10.059,0,0,0-3.191-2.162,9.687,9.687,0,0,0-3.86-.777,9.65,9.65,0,0,0-3.855.777A10.223,10.223,0,0,0,2.433,8.983a9.9,9.9,0,0,0,.005,7.725A10.3,10.3,0,0,0,7.79,22.06,9.567,9.567,0,0,0,11.656,22.848ZM9.484,17.464a.8.8,0,0,1-.659-.278,1.121,1.121,0,0,1-.226-.731V9.2a1.138,1.138,0,0,1,.226-.741A.825.825,0,0,1,9.5,8.18h2.779a3.351,3.351,0,0,1,2.4.865,2.97,2.97,0,0,1,.916,2.265,2.988,2.988,0,0,1-.911,2.28,3.373,3.373,0,0,1-2.414.859H10.389v2.007a1.084,1.084,0,0,1-.237.736A.838.838,0,0,1,9.484,17.464Zm.906-4.364h1.647a1.805,1.805,0,0,0,1.328-.479,1.763,1.763,0,0,0,.484-1.312,1.739,1.739,0,0,0-.489-1.3,1.809,1.809,0,0,0-1.323-.479H10.389Z" transform="translate(-2600.65 3076.152)" fill="#d93025"/>
  </g>
</svg>
