<svg xmlns="http://www.w3.org/2000/svg" width="80" height="80" viewBox="0 0 80 80">
  <g id="组_6280" data-name="组 6280" transform="translate(-37 -619)">
    <path id="路径_3128" data-name="路径 3128" d="M78.606,25.509c-1.937-7.07-5.588-11.756-9.461-15.825S58.453,3.436,55.951,2.635A47.957,47.957,0,0,0,40.579.518c-7.121.206-16.2,2.1-22.473,6.1-6.254,4.008-9.26,7.152-12.2,11.961C2.976,23.393-.655,33.73.334,41.787c.988,8.036,2.179,13.873,7.242,22.052,1.735,2.816,9.824,10.81,13.92,12.6,4.075,1.788,5.669,3.371,8.775,3.74,3.107.349,2.885.555,6.839-.123.081-.021.161-.021.222-.041.525.021.161.082,1.271.206,1.412.164.867-.473,1.372-.781s1.069-.164,2.34-.514c1.271-.37.5-.206.968-.658a8.225,8.225,0,0,0,.746-.74c.5-.575.3-.411.363-.884a1.265,1.265,0,0,0,0-.39,2.112,2.112,0,0,0,.383-.884,1.382,1.382,0,0,0,.02-.288c.444-.062.888-.123,1.372-.185a53.991,53.991,0,0,0,18.822-5.94A55.245,55.245,0,0,0,71.3,64.312c3.914-3.042,3.066-3.658,5.043-6.351s2.1-5.117,3.107-9.886C80.482,43.266,80.563,32.579,78.606,25.509ZM48.447,72.82a20.585,20.585,0,0,0-3.571.226c-.04-.164-.242-.247-.444-.575a.072.072,0,0,0-.02-.041c.343,0,.686.021.988.021a23.429,23.429,0,0,0,5.891-1.377,52.615,52.615,0,0,0,6.314-2.24l-1.13.349c.968-.39,1.957-.8,2.925-1.213a.711.711,0,0,0,.182.082c-.525.185-1.19.452-1.977.76l1.977-.637c.061-.021.1-.062.161-.082.02,0,.04,0,.04.021l-.2.062c-1.634.781-6.294,2.672-7.545,3.1a39.459,39.459,0,0,0,8.755-3h.081C56.657,70.416,50.182,72.923,48.447,72.82Zm5.689-4.768h0c-.02.021-.02.021-.04.021C54.1,68.052,54.115,68.052,54.136,68.052Zm8.755-3.884c-.161.144-.343.288-.524.432l-1.352.719c-.424.349-.767.637-1.029.9-.968.39-1.916.6-3.268,1.233a.02.02,0,0,0-.02.021c.141-.226.282-.473.444-.76.888-.411,1.8-.843,2.784-1.274,1.11-.493,1.977-.925,2.643-1.295.141-.021.262-.021.4-.041A.279.279,0,0,0,62.891,64.168Zm9.8-24.642c-.1,2.261-.706,8.015-1.8,10.543s-1.13,5.138-4.317,8.365c-.545.555-3.692,4.152-6.476,5.652q-1.21.647-2.36,1.171a33.431,33.431,0,0,0,1.372-7.3c.1-2.014.706-5.364.666-7.584q.3-.031.545-.062c1.533-.185,1.977-1.007,1.493-2.055a4.353,4.353,0,0,0-2.259-1.151c-.061-1.089-.1-2.055-.141-2.877-.061-1.418-1.231-3.576-1.8-2.8-.625.863-1.11,2.1-1.352,4.686-.1-.041-.2-.082-.242-.1a14.3,14.3,0,0,0-3.571-1.048c-.464.082-2.138.226-2.683.986a2.245,2.245,0,0,0-.343.658,1.174,1.174,0,0,0-.081.247,2.411,2.411,0,0,0-.1,1.521,3.811,3.811,0,0,0,.928,1.089c.424.329.525.555,1.251.575a7.659,7.659,0,0,1,1.19,0,4.445,4.445,0,0,0,2.038.226,14.325,14.325,0,0,0,1.432.185v.493c-.02,2.8-1.271,11.694-1.452,13.215-.081.637-.242,1.6-.343,2.528a74.729,74.729,0,0,1-10.369,2.446,15.384,15.384,0,0,0,3.692.473,18.5,18.5,0,0,1-4.519.74l-.121-.123c.061-.1.161-.185.161-.329a2.4,2.4,0,0,0-.262-1.336c-.242-.575-.706-.473-1.533-.37a6.265,6.265,0,0,0-2.5-.514C31.239,66.47,27.507,66.511,25.53,65.2c-2-1.336-9.26-3.946-11.963-12.372-2.623-8.139-4.66-15.373-2.159-25.546A30.314,30.314,0,0,1,24.582,12.151c12.366-6.268,21.1-5.857,31.349-2.2a35.556,35.556,0,0,1,9.381,6.638A23.138,23.138,0,0,0,61.943,13.2c3.268,2.281,6.5,5.015,8.332,10.029C73.421,32.024,72.8,37.265,72.7,39.526Z" transform="translate(36.832 618.498)" fill="#d93025"/>
    <path id="路径_3129" data-name="路径 3129" d="M21.073,16.547c1.189-2.727.8-6.745.307-8.59-.348-1.291-3.546-1.886-2.993-.861.533,1.025-.82,5.289-1.435,7.38-.615,2.112-3.649,4.879-4.777,5.515-1.128.656-2.665.369-3.547,1.271s2.173,1.087,5.1.8A10.02,10.02,0,0,0,21.073,16.547Z" transform="translate(45.229 624.914)" fill="#d93025"/>
    <path id="路径_3130" data-name="路径 3130" d="M45.445,24.744c-.349.677-1.148.9-2.419.574-1.169-.307-2.952-.594-5.351-3.977a11.535,11.535,0,0,0,1.763-3.034c.7-2.009,1.722-6.97-.082-4.141a30.693,30.693,0,0,1-3.26,4.572,44.579,44.579,0,0,1-2.5-5.863,2.841,2.841,0,0,0,.82-.123c2.009-.554,1.66-.8,2.521-2.132s.471-1.456.164-2.337S36.036,7.36,34.56,6.314a5.415,5.415,0,0,0-2.726-.656c-.7-3.055-2.07-1.374-2.214.02a7.724,7.724,0,0,1-.984,0,87.13,87.13,0,0,0-10.906.349c-3.055.369-4.592,1.5-3.4,2.337a13.887,13.887,0,0,0,5.023,2.071c1.948.389,6.663.553,8.835.943a14.386,14.386,0,0,1,2.706.882,64.648,64.648,0,0,0,3.26,8.1,6.742,6.742,0,0,1-1.763.759,2.476,2.476,0,0,0-1.455,3.813c.9.943,1.517.82,3.567-.533A11.292,11.292,0,0,0,35.79,23.37c.144.225.287.41.41.574,2.009,2.583,4.531,4.633,7.708,4.387,3.157-.246,3.3-3.792,2.891-4.018A.91.91,0,0,0,45.445,24.744Z" transform="translate(50.519 622.11)" fill="#d93025"/>
    <path id="路径_3131" data-name="路径 3131" d="M23.8,11.252c1.825-.143,1.169-.492,1.948-1.517s.02-.84-.472-1.21c-.492-.348-3.875-.779-6.13-.553-2.276.225-2.973.82-1.886,1.455C18.467,10.125,21.993,11.4,23.8,11.252Z" transform="translate(53.636 626.315)" fill="#d93025"/>
    <path id="路径_3132" data-name="路径 3132" d="M16.466,13.144a5.417,5.417,0,0,0,.923,2.563c-1.435,1.168-.061,1.332,1.538,1.537h.041a.892.892,0,0,0,.451.061c1.209.164,3.424.492,5.515.574a.155.155,0,0,0,.082.041.523.523,0,0,0,.595-.041c1.23-.082,1.107-.718.841-1.353.512-.964,1.086-2.4.9-3.075-.266-.984-1.127-1.435-2.481-2.255-1.066-.636-3.854-.554-6.048-.267v-.041c-.062-1.64-.943-1.681-2.091-.861C15.584,10.869,16.466,11.689,16.466,13.144Zm3.116-.492a27.555,27.555,0,0,1,2.788.389c.43.164.841-.021,1.271.554a2.428,2.428,0,0,1,.553,1.374c-.676-.02-1.5-.041-2.48-.082-.943-.041-1.558-.1-2.03-.123-.2-.636-.43-1.374-.615-2.173C19.213,12.611,19.377,12.632,19.582,12.652Z" transform="translate(53 628.002)" fill="#d93025"/>
    <path id="路径_3133" data-name="路径 3133" d="M15.7,14.757c-1.394,1.045-1.435,2.563-1.661,3.69-.225,1.107,1,2.255,1.8,3.424s2.788.123,2.809-.738c.041-.861-.984-3.506-.41-5.8C18.595,13.917,17.1,13.712,15.7,14.757Z" transform="translate(50.894 632.853)" fill="#d93025"/>
    <path id="路径_3134" data-name="路径 3134" d="M33.646,22.008a7.155,7.155,0,0,0-4.408-.533c-1.087.328-3.772.7-5.064,0-1.312-.718-4.223-1.312-4.285-2.973-.062-1.681-.963-3.239-.861-3.895s-1.538-.7-1.64.205C17,18.2,18.578,23.443,23.068,24.858c4.49,1.435,7.011,1.886,9.246.758C34.527,24.489,34.384,22.541,33.646,22.008Z" transform="translate(54.148 632.885)" fill="#d93025"/>
    <path id="路径_3135" data-name="路径 3135" d="M21.012,14.781c-1.148-.021-.964,3.075.759,4.244.963.656,2.111-.451,2.111-.451a2.122,2.122,0,0,0,.369-1.087c0-.553-.226-.758-.718-1.927C23.062,14.433,22.139,14.8,21.012,14.781Z" transform="translate(57.265 633.526)" fill="#d93025"/>
    <path id="路径_3136" data-name="路径 3136" d="M26.425,16a16.692,16.692,0,0,1-2.173-1c-1.107-.553-.943,1.722-.718,2.193s1.619,2.4,3.424,1.7c.676-.267.964-.595.84-1.661C27.7,16.183,27.224,16.286,26.425,16Z" transform="translate(60.392 633.703)" fill="#d93025"/>
    <path id="路径_3137" data-name="路径 3137" d="M16.281,23.055a2.652,2.652,0,0,0,3.383-.492c.533-.943-.451-1.619-1.23-2.685-.759-1.087-2.009-1.189-3.506-.984C13.432,19.078,14.641,21.661,16.281,23.055Z" transform="translate(51.123 637.82)" fill="#d93025"/>
    <path id="路径_3138" data-name="路径 3138" d="M23.6,24.614c.39-1.558-.349-.881-.656-1.5s-1.066-.882-2.6-1.517c-1.538-.656-2.645-.574-6.007-.062-2.419.39-2.583,1.517-2.05,1.886a7.369,7.369,0,0,0,2.87.922,11.075,11.075,0,0,1,3.793,1.292,7.549,7.549,0,0,0,2.809,1.209C22.825,27.074,23.214,26.192,23.6,24.614Z" transform="translate(48.843 640.274)" fill="#d93025"/>
    <path id="路径_3139" data-name="路径 3139" d="M20.316,25.892c.533-.964-.39-.779-1.292-1.394-.9-.636-2.029-.226-4.243-.123s-1.517,1.23-.164,1.64A25.049,25.049,0,0,0,18.409,27.1,1.91,1.91,0,0,0,20.316,25.892Z" transform="translate(50.205 643.456)" fill="#d93025"/>
    <path id="路径_3140" data-name="路径 3140" d="M14.062,25.879c-.82.061-.841.717-.185,1.394s.861.41,1.784,1.066a4.353,4.353,0,0,0,3.321.246c.615-.246.574-1.046.041-1.661C18.449,26.33,15.559,25.756,14.062,25.879Z" transform="translate(50.273 645.262)" fill="#d93025"/>
    <path id="路径_3141" data-name="路径 3141" d="M28.673,11.221a3,3,0,0,0,.43.328,1.19,1.19,0,0,0,.943.594,2.18,2.18,0,0,0,1.148,0,.456.456,0,0,0,.328-.164,1.978,1.978,0,0,0,.41-.184,1.2,1.2,0,0,0,.226-.9.72.72,0,0,0,.143-.185c.205-.369-.123-.738-.39-1.312-.266-.554-.84-.9-.984-1.128a11.031,11.031,0,0,0-1.517-1.128A8.6,8.6,0,0,0,28.12,6.4a1.246,1.246,0,0,0-1.21,1.681A5.092,5.092,0,0,0,28.673,11.221Z" transform="translate(63.894 624.699)" fill="#d93025"/>
    <path id="路径_3142" data-name="路径 3142" d="M37.545,32.889c-.123-.1-.41-.062-.718-.041a44,44,0,0,0-.062-7.749c-.451-1.927-2.542-2.276-5.8-2.378,1.292-.636,2.665-1.374,2.542-1.62a2.767,2.767,0,0,0-2.747-.943c-3.178,1.087-4.531,1.66-4.51,2.235a3.33,3.33,0,0,1-.02.369c-2.419.328-1.292,1.538-.1,1.8-.184,3.3-.513,9.389-.307,11.4-1.251.144-1.353-.184-2.87.267-.943.287-.8,1.537-.779,1.906a2.68,2.68,0,0,0-.82-1c-1.148-.84-2.112-.882-5.7-1-2.747-.082-2.173-.451-2.952-.267-.656.143-1.23,1.23-.717,1.414-.287.246-.718.062.9.39a2.383,2.383,0,0,1,.369.082,15.723,15.723,0,0,0-.1,5.084c.123.9.594.9,1.661,1.661a3.009,3.009,0,0,0,.307.184,3.579,3.579,0,0,0,2.932.717c2.05-.144,4.08-.348,5.351-1.251s1.087-2.419-.349-2.153a4.788,4.788,0,0,1-.533.082,13.1,13.1,0,0,0,.062-1.394,6.415,6.415,0,0,0-.246-2.07,4.541,4.541,0,0,0,2.193.656c1.866.287,1.251-.1,2.276-.43,1.025-.349,1.8-.779,2.686-1.128.369-.143.8-.348,1.333-.595a19.409,19.409,0,0,0-4.756,5.248c-1.476,2.665.677,2.583,2.665.615a52.466,52.466,0,0,1,3.834-3.731,4.294,4.294,0,0,1,.348-.287c-.246,2.972-1.046,4.94-1.046,6.314.021,1.865.451,2.6,1.394,2.419.492-.1,1.189-.226,2.173-2.788.513-1.333,1-5.966,1.271-10.455.185-.246.369-.492.554-.779l.123-.184a5.844,5.844,0,0,1,.062.9,1.452,1.452,0,0,0,.7,1.578,5.326,5.326,0,0,0,1.455.923,1.219,1.219,0,0,0,.615.061,3.28,3.28,0,0,0,2.214.021c.595-.185.574-.41.738-1.107a3.536,3.536,0,0,0-.144-1.845,2.35,2.35,0,0,0-.738-1.189,5.057,5.057,0,0,0-.574-.676c-.943-.964-2.071-.82-3.4.041A2.123,2.123,0,0,0,37.545,32.889Zm-21.4,8.836a22.876,22.876,0,0,0,.328-3.157c.1.021.226.062.328.082,1.045.246,1.537.389,1.681.717.143.307.41.328.389,1.127,0,.431-.061,1.066-.1,1.661C17.68,42.011,16.819,41.806,16.143,41.724Zm12.28-6.314c.061-.677.164-1.394.246-2.091a1.538,1.538,0,0,1,.841-.123,4.872,4.872,0,0,0,2.132-.123c.677-.123.431-1.886-.062-1.824-.307.041-1.476-.164-2.665-.266a5.956,5.956,0,0,0,.02-.84c0-.267-.02-.574-.041-.882a13.331,13.331,0,0,0,2.768.287.907.907,0,0,0,.779-1.066,2.213,2.213,0,0,0-1.292-1.025c-.328-.021-1.353-.451-2.419-.8a10.416,10.416,0,0,1,.062-1.824,12.736,12.736,0,0,0,1.415.1c1,.02,2.993,1.066,3.3,1.906.246.7-.41,4.613-.595,6.97C31.5,34.365,29.816,34.98,28.422,35.41Z" transform="translate(48.331 639.194)" fill="#d93025"/>
  </g>
</svg>
