<?xml version="1.0" encoding="UTF-8"?><svg id="_メッセージ" xmlns="http://www.w3.org/2000/svg" viewBox="0 0 400 338.1"><defs><style>.cls-1{fill:#707070;}</style></defs><g id="_グループ_6345"><g id="_グループ_6512"><g><path id="_パス_3062" class="cls-1" d="M219.81,334.55l2.33-58.16C471.7,251.44,447.09,2.59,201.5,1.99,91.45,1.98,1.99,63.25,1.99,138.47c0,44.38,31.59,86.15,84.46,111.64,0,0,133.35,84.44,133.35,84.44ZM201.4,22.39c228.12,1.96,243.8,220.99,1.53,235.36l-1.66,41.43-106.28-67.15c-46.12-21.96-73.49-56.91-73.49-93.44,.22-64.06,80.81-116.18,179.9-116.18h0Z"/><path class="cls-1" d="M221.66,338.1S85.39,251.8,85.39,251.8C32,226.07,0,183.67,0,138.47,0,62.12,90.4,0,201.51,0c246.38,.33,274.14,252.04,22.55,278.2,0,0-2.4,59.9-2.4,59.9ZM201.51,3.99C92.6,3.99,3.99,64.32,3.99,138.47c0,43.62,31.15,84.69,83.32,109.84l130.63,82.71,2.26-56.42C468.72,251.67,445.71,4.66,201.5,4h.01Zm1.61,298.7s-109.2-69-109.2-69c-46.52-22.15-74.43-57.74-74.43-95.13,.22-65.16,81.82-118.18,181.89-118.18,228.61,1.67,248.01,223.1,3.46,239.2l-1.73,43.1h.01Zm-1.73-278.31c-97.87,0-177.68,51.22-177.9,114.2,0,35.8,27.04,70.06,72.35,91.64l103.57,65.42,1.59-39.75c240.04-12.62,227.89-229.34,.39-231.51h0Z"/></g><g><path id="_パス_3063" class="cls-1" d="M303.85,158.4c27.47-1.28,26.26-42.19-1.25-41.83-27.52,1.36-26.12,41.87,1.25,41.83Zm-102.41,0c27.47-1.28,26.26-42.19-1.25-41.83-27.53,1.36-26.12,41.87,1.25,41.83Zm-102.3,0c27.47-1.28,26.26-42.19-1.25-41.83-27.53,1.36-26.12,41.87,1.25,41.83Z"/><path class="cls-1" d="M303.5,160.39c-29.68-.38-30.89-44.46-.95-45.82,30.37-.39,31.33,44.98,.95,45.82Zm-.26-41.84c-25.18,.44-24.6,37.51,.29,37.84,24.57-.39,24.26-37.82-.29-37.84Zm-102.14,41.84c-29.69-.42-30.91-44.45-.97-45.82,30.36-.39,31.34,44.96,.97,45.82Zm-.27-41.84c-25.17,.45-24.62,37.48,.3,37.84,24.67-.75,24.36-37.46-.3-37.84Zm-102.03,41.84c-30.13-.48-30.69-45.31-.28-45.82,29.92,.49,30.23,44.99,.28,45.83h0Zm-.27-41.85c-25.16,.46-24.62,37.48,.3,37.84,24.69-.8,24.35-37.46-.3-37.85h0Z"/></g></g></g></svg>