<?xml version="1.0" encoding="UTF-8"?><svg id="_レイヤー_1" xmlns="http://www.w3.org/2000/svg" viewBox="0 0 80 80"><defs><style>.cls-1{fill:#1d1d1f;}</style></defs><path id="_パス_3290" class="cls-1" d="M40.02,80c5.31,.03,10.57-1.04,15.44-3.15,9.61-4.14,17.27-11.8,21.41-21.41,2.1-4.88,3.17-10.15,3.13-15.46,.03-5.31-1.04-10.57-3.15-15.44-2.06-4.77-5-9.11-8.67-12.78-3.66-3.68-7.99-6.62-12.76-8.65C50.54,1.03,45.28-.03,39.98,0c-5.3-.03-10.55,1.02-15.42,3.11C14.93,7.24,7.26,14.92,3.13,24.54,1.04,29.42-.03,34.67,0,39.98c-.04,5.32,1.04,10.58,3.15,15.46,4.16,9.6,11.81,17.25,21.41,21.41,4.88,2.11,10.14,3.19,15.46,3.15ZM20.96,40.02c-.08-1.94,1.43-3.58,3.38-3.66,.1,0,.19,0,.29,0h11.78v-11.73c-.04-.98,.32-1.92,.99-2.64,.67-.69,1.59-1.06,2.55-1.03,1.91-.11,3.55,1.34,3.66,3.25,0,.14,0,.27,0,.41v11.73h11.82c.98-.04,1.92,.34,2.61,1.03,.68,.71,1.04,1.66,1,2.64,.03,.96-.34,1.9-1.03,2.57-.69,.67-1.63,1.03-2.6,1h-11.8v11.78c.08,1.93-1.43,3.55-3.35,3.63-.1,0-.21,0-.31,0-.96,.03-1.89-.34-2.55-1.03-.66-.7-1.02-1.64-.99-2.6v-11.76h-11.78c-.98,.04-1.93-.32-2.64-1-.69-.68-1.06-1.62-1.03-2.58Z"/></svg>