<?xml version="1.0" encoding="UTF-8"?><svg id="_予約" xmlns="http://www.w3.org/2000/svg" viewBox="0 0 400.81 402.51"><defs><style>.cls-1{fill:#707070;}</style></defs><g id="_予約_icon_1"><g id="_グループ_5612"><g id="_グループ_5610"><path id="_パス_3241" class="cls-1" d="M92.1,67.9c6.93-.02,12.53-5.63,12.55-12.56V14.85c-.02-6.92-5.63-12.53-12.55-12.55-6.9,.09-12.47,5.66-12.56,12.55V55.34c-.06,6.88,5.47,12.5,12.35,12.56,.07,0,.14,0,.21,0Z"/><path id="_パス_3242" class="cls-1" d="M200.35,67.9c6.93-.02,12.54-5.63,12.56-12.56V14.85c0-6.93-5.62-12.56-12.56-12.56s-12.56,5.62-12.56,12.56V55.34c-.06,6.88,5.47,12.5,12.35,12.56,.07,0,.13,0,.2,0Z"/><path id="_パス_3243" class="cls-1" d="M334.41,35.36h-2.23v21.34c0,13.37-10.82,24.21-24.19,24.21-13.37,0-24.21-10.82-24.21-24.19v-21.37h-59.34v21.34c0,13.37-10.83,24.2-24.2,24.2s-24.2-10.83-24.2-24.2v-21.34h-59.2v21.34c0,13.37-10.83,24.2-24.2,24.2s-24.2-10.83-24.2-24.2h0v-21.34h-2.03c-29.09,.04-52.65,23.64-52.64,52.74V349.56c-.01,29.09,23.55,52.7,52.64,52.74H334.63c29.09-.04,52.65-23.64,52.64-52.74V88.09c-.09-29.14-23.73-52.71-52.86-52.74Zm31.12,310.18c.02,19.42-15.7,35.18-35.12,35.2H70.31c-19.42-.02-35.15-15.77-35.13-35.19,0,0,0,0,0,0V149.66H365.53v195.87Z"/><path id="_パス_3244" class="cls-1" d="M308.6,67.9c6.93-.02,12.54-5.63,12.56-12.56V14.85c0-6.93-5.62-12.56-12.56-12.56s-12.56,5.62-12.56,12.56V55.34c-.06,6.88,5.47,12.5,12.35,12.56,.07,0,.13,0,.2,0Z"/></g><path id="_パス_3245" class="cls-1" d="M237.81,231.6c-2.98-2.78-7.65-2.61-10.42,.37-.2,.21-.39,.44-.56,.68l-27.52,35.03-27.41-12.66c-4.7-2.3-9-3.14-11.4,1.98-2.4,4.92-.21,8.06,3.77,10.57l31.8,15.59c5.23,2.72,9.21,3.03,10.78,.94l32.54-41.6c2.64-3.05,2.3-7.67-.75-10.3-.26-.22-.53-.43-.81-.61Z"/><g id="_グループ_5611"><path id="_パス_3246" class="cls-1" d="M200.34,360.45c-47.78,0-86.52-38.74-86.52-86.52,0-47.78,38.74-86.52,86.52-86.52,47.78,0,86.52,38.74,86.52,86.52-.05,47.76-38.76,86.47-86.52,86.52Zm0-156.93c-38.88,0-70.4,31.52-70.4,70.4s31.52,70.4,70.4,70.4,70.4-31.52,70.4-70.4-31.52-70.4-70.4-70.4h0Z"/></g></g></g></svg>