<svg xmlns="http://www.w3.org/2000/svg" width="30" height="30" viewBox="0 0 30 30">
  <g id="组_6739" data-name="组 6739" transform="translate(2857 378.995)" opacity="0.9">
    <g id="组_6738" data-name="组 6738" transform="translate(-116 806)">
      <g id="组_4146" data-name="组 4146" transform="translate(-2741 -1184.995)">
        <path id="パス_3051" data-name="パス 3051" d="M15,1.5A13.5,13.5,0,0,0,5.454,24.546,13.5,13.5,0,1,0,24.546,5.454,13.412,13.412,0,0,0,15,1.5M15,0A15,15,0,1,1,0,15,15,15,0,0,1,15,0Z" transform="translate(0 0)" fill="#1d1d1f"/>
        <path id="交叉_1" data-name="交叉 1" d="M0,21.34v-.483A8.229,8.229,0,0,1,5.923,12.94a8,8,0,0,0,8.937,0,8.229,8.229,0,0,1,5.923,7.917v.059A14.384,14.384,0,0,1,0,21.34ZM4.46,6.032A5.983,5.983,0,0,1,10.391,0a5.878,5.878,0,0,1,4.2,1.766,6.08,6.08,0,0,1,1.736,4.267,5.932,5.932,0,1,1-11.863,0Z" transform="translate(4.725 4.2)" fill="#1d1d1f"/>
      </g>
    </g>
  </g>
</svg>
