<?xml version="1.0" encoding="UTF-8"?>
<svg xmlns="http://www.w3.org/2000/svg" version="1.1" viewBox="0 0 400.1 89.9">
  <defs>
    <style>
      .cls-1 {
        fill: #b40019;
      }

      .cls-1, .cls-2, .cls-3, .cls-4, .cls-5, .cls-6, .cls-7 {
        isolation: isolate;
        opacity: .8;
      }

      .cls-2 {
        fill: #431274;
      }

      .cls-8 {
        fill: #1d1d1d;
      }

      .cls-3 {
        fill: #008a32;
      }

      .cls-4 {
        fill: #1d3070;
      }

      .cls-5 {
        fill: #006ab8;
      }

      .cls-9 {
        fill: #fff;
      }

      .cls-6 {
        fill: #f38200;
      }

      .cls-7 {
        fill: #ffec00;
      }
    </style>
  </defs>
  <!-- Generator: Adobe Illustrator 28.7.1, SVG Export Plug-In . SVG Version: 1.2.0 Build 142)  -->
  <g>
    <g id="_レイヤー_1" data-name="レイヤー_1">
      <g id="_レイヤー_1-2" data-name="_レイヤー_1">
        <g>
          <path id="_パス_3564" class="cls-9" d="M155.9,76.6c-1.1,3.9-2.6,7.8-4.2,11.5-4.6,1.1-9.3,1.7-14,1.8-18.2,0-27.6-12.1-27.6-25.5s11.8-26.3,28.9-26.3,9.7.7,14.4,1.8c.3,3.4.8,8,1.4,11.8l-2.4.5c-1.5-5.1-3.4-8.2-7.2-9.9-2.6-1-5.3-1.5-8-1.5-12.6,0-19.2,9.3-19.2,21.9s7.6,24.2,20,24.2,11.6-3.6,15.5-11.2l2.4.9h0Z"/>
          <path id="_パス_3565" class="cls-9" d="M186.2,89.7c-1.3,0-2.6-.6-3.6-1.4-.9-1-1.6-2.2-1.8-3.4-3.1,2.1-6.8,4.9-9.2,4.9-5.2,0-9.3-4.2-9.3-9.4s2.1-6.2,6.3-7.6c4.7-1.6,10.4-3.6,12.1-5v-1.5c0-5.4-2.8-8.5-6.7-8.5s-2.7.6-3.6,1.8c-1,1.5-1.6,3.2-2.1,5-.2,1.1-1.1,1.8-2.2,1.8-1.8-.2-3.2-1.6-3.4-3.3,0-1.1,1-2,2.5-3,3.3-2.5,7-4.3,11-5.3,5.5-.2,10.2,4.2,10.3,9.7v15.9c0,3.5,1.3,4.6,2.7,4.6s1.9-.3,2.8-.8l.8,2.1-6.6,3.4h0ZM180.6,70.4c-1.7.8-5.3,2.4-7.1,3.2-2.9,1.3-4.7,2.8-4.7,5.6-.2,3.1,2.2,5.7,5.2,5.9h.3c2.3-.2,4.6-1.1,6.3-2.8v-11.9h0Z"/>
          <path id="_パス_3566" class="cls-9" d="M213.5,88.8h-17.6v-2.1c4.8-.5,5.3-.8,5.3-5.8v-15.9c0-5-.3-5.3-4.7-5.8v-1.9c3.7-.6,7.3-1.6,10.8-3.1v8.4c2.7-4,5.9-8.2,9.7-8.2,2.2-.3,4.1,1.3,4.4,3.4v.2c-.1,1.8-1.1,3.4-2.6,4.2-.6.5-1.5.4-2-.2-.8-1.1-2.1-1.8-3.4-1.9-1.6,0-4.4,2.4-6.1,6.3v14.4c0,5,.4,5.4,6.3,5.9-.1,0-.1,2.1-.1,2.1h0Z"/>
          <path id="_パス_3567" class="cls-9" d="M261.5,86.9c-4,.6-8,1.6-11.8,2.8v-5c-1.4.8-3.4,1.9-4.7,2.8-1.8,1.2-3.9,2-6,2.2-6.1,0-14.2-6.1-14.2-16.8s9.3-18.5,19.8-18.5,3.5.3,5.2.8v-11.2c0-4.9-.5-5-5.9-5.5v-2c4.1-.5,8.1-1.4,12-2.6v46c0,4,.5,4.5,3.4,4.7l2.4.2c-.2,0-.2,2.1-.2,2.1ZM249.6,61.3c-1.9-2.5-4.9-4-8-3.9-3.7,0-10.1,2.4-10.1,13.4s5.7,14.1,10.6,14.2c2.7,0,5.4-1.1,7.6-2.8v-20.9h-.1Z"/>
          <path id="_パス_3568" class="cls-9" d="M283.9,73.9h-17.6l.5-4.7h17.6l-.5,4.7Z"/>
          <path id="_パス_3569" class="cls-9" d="M318.1,50.8c-1.3-5-3.4-10-10.6-10s-8,4.3-8,8.3,3.4,7.9,9.7,11.2c9.2,4.7,13.1,8.2,13.1,15.5s-7,14.1-16.8,14.1-8-.9-11.7-2.5c-.9-3.8-1.6-7.6-2.1-11.4l2.4-.6c1.5,5.1,4.9,11.8,12.8,11.8,4.6.3,8.6-3.3,8.9-7.9v-.9c0-5.9-3.1-8.2-9.9-11.9-8-4.3-12.5-8-12.5-15.1s5.6-13.2,15.7-13.2,6.8.6,10.1,1.5c.3,2.8.6,5.8,1.2,10.8l-2.3.3h0Z"/>
          <path id="_パス_3570" class="cls-9" d="M352.8,89.7c-1.3,0-2.6-.6-3.6-1.4-.9-1-1.5-2.2-1.8-3.4-3,2.1-6.8,4.9-9.2,4.9-5.2,0-9.3-4.2-9.3-9.4s2.1-6.2,6.3-7.6c4.7-1.6,10.4-3.6,12.1-5v-1.5c0-5.4-2.8-8.5-6.7-8.5s-2.7.6-3.6,1.8c-1,1.5-1.6,3.2-2.1,5-.2,1.1-1.1,1.8-2.2,1.8-1.8-.2-3.2-1.6-3.4-3.4,0-1.1,1-2,2.5-3,3.3-2.5,7-4.3,11-5.3,5.5-.2,10.2,4.2,10.3,9.7v15.9c0,3.5,1.3,4.6,2.7,4.6s1.9-.3,2.8-.8l.8,2.1-6.6,3.5h0ZM347.2,70.4c-1.7.8-5.4,2.4-7.1,3.2-2.9,1.3-4.7,2.8-4.7,5.6-.2,3.1,2.2,5.7,5.2,5.9h.3c2.3-.2,4.5-1.1,6.3-2.8v-11.9h0Z"/>
          <path id="_パス_3571" class="cls-9" d="M384.4,88.8v-2.1c4.4-.5,4.9-1,4.9-6.2v-12.6c0-5.3-1.9-8.9-7-8.9-3.2.3-6.2,1.7-8.5,4v17.9c0,5.3.5,5.4,5,5.9v2.1h-16.5v-2.1c5-.5,5.5-.8,5.5-5.9v-15.8c0-5-.5-5.2-4.7-5.9v-2c3.7-.5,7.3-1.6,10.7-3v6c1.5-1.1,3.2-2.2,5.2-3.5,1.8-1.4,4-2.2,6.3-2.3,6.1,0,9.9,4.5,9.9,11.9v14.5c0,5.2.5,5.4,4.9,5.9v2.1c.1,0-15.7,0-15.7,0h0Z"/>
          <path id="_パス_11732" class="cls-9" d="M145.6,2.3c-.2.9-.4,1.7-.8,2.5-.8,1.9-1.7,3.8-2.8,5.5-2-1.5-4-2.9-6.2-4.1l-1.2,1.3c2.2,1.2,4.4,2.7,6.4,4.3-2.4,3.4-5.7,6.1-9.4,7.9.5.4.9.9,1.2,1.4,3.8-2,7-4.8,9.5-8.2,1.9,1.5,3.6,3.2,5.2,5.1l1.3-1.5c-1.7-1.8-3.5-3.5-5.4-5.1,1.4-2.2,2.6-4.5,3.5-6.9.2-.5.4-1,.7-1.4l-2-.8h0ZM156.6,5.2c2.1,1.3,4,2.8,5.6,4.6l1.2-1.5c-1.7-1.7-3.6-3.2-5.7-4.4l-1.1,1.3h0ZM156.7,20.6c.5-.1.9-.3,1.4-.4,3.1-.6,6.1-1.8,8.8-3.5,3.2-2.3,5.7-5.4,7.2-9-.6-.4-1.1-.8-1.4-1.4-1.6,4.7-5.1,8.5-9.7,10.6-2.2,1-4.5,1.6-6.9,1.8l.6,1.9h0ZM182.5,3.5v.4c0,.8-.1,1.5-.2,2.2-.4,2.9-1.2,5.6-2.4,8.2-.8,1.8-2,3.4-3.4,4.7.6.3,1.1.7,1.5,1.2,3.3-3.5,5.3-8,6.2-14.8.1-.6.1-1.1.3-1.6l-2-.3h0ZM189.3,3.8c.1.5.2,1,.3,1.6.7,5.5,2.9,10.6,6.4,14.9.4-.5.9-1,1.5-1.3-2.6-2.7-4.5-6.1-5.4-9.8-.6-1.8-.9-3.8-1.1-5.7l-1.7.3h0ZM192.4,2.8c.9,1.2,1.7,2.5,2.3,3.8l1.2-.7c-.6-1.3-1.4-2.6-2.4-3.7l-1.1.6h0ZM195.1,1.6c.9,1.2,1.7,2.4,2.3,3.8l1.2-.7c-.6-1.3-1.4-2.6-2.4-3.7l-1.1.6h0ZM199.9,12.6c1-.1,2-.1,2.9-.1h13.7c1,0,1.9,0,2.9.1v-1.9c-.9.1-1.9.1-2.9.1h-13.8c-1,0-2,0-2.9-.1v1.9h.1ZM239.9,19.6c-2.4-2.6-5-5-7.9-7.1,1.6-2,2.9-4.2,3.9-6.6.1-.3.3-.6.4-.9l-1-1.2h-12.2v1.9c.9,0,1.7-.2,2.5-.2h7.9c.3,0,.4,0,.6-.2,0,.2-.1.4-.2.5-1.3,3-3.1,5.7-5.4,8-2.2,2.3-4.9,4.1-7.9,5.4.5.4.9,1,1.2,1.6,3.5-1.7,6.6-4.1,9.2-7.1,2.8,2.1,5.3,4.6,7.6,7.3l1.3-1.5h0ZM236,1.9c1,1.1,1.8,2.4,2.4,3.8l1.2-.7c-.7-1.3-1.5-2.5-2.4-3.7l-1.2.6h0ZM238.7.7c.9,1.1,1.8,2.4,2.4,3.7l1.2-.7C241.6,2.4,240.8,1.1,239.9,0l-1.2.7h0ZM248.1,6.4c-.9,0-1.7,0-2.6-.2v1.8c.8,0,1.7-.2,2.5,0h4.3c-.1,2-.6,3.9-1.5,5.6-1.3,2.7-3.5,4.9-6.2,6.2.5.4.9.9,1.2,1.4,2.6-1.5,4.7-3.7,6.2-6.3,1.1-2.2,1.8-4.6,1.9-7h6.6c0,2.8-.2,5.6-.6,8.4-.5,2.4-.8,2.9-2,2.9s-2.1-.2-3.1-.6c.2.5.3,1,.3,1.5v.3c1,.2,2,.4,2.9.4,2.1,0,2.8-.9,3.4-4.1.4-2.8.6-5.5.7-8.3,0-.5,0-1,.2-1.4l-.9-.8c-.5.2-1,.2-1.6.2h-5.9c.1-.7.1-.9.1-1.7s.1-2,.2-3h-1.9c.1.4.1.8.1,1.2,0,1-.1,2.3-.1,3.6h-4.2ZM268.1,12.6c1-.1,2-.1,2.9-.1h13.7c1,0,1.9,0,2.9.1v-1.9c-1,.1-1.9.1-2.9.1h-13.8c-1,0-2,0-2.9-.1v1.9h.1,0ZM298.8,21.5c-.1-.8-.1-1.7-.1-2.5v-7.1c0-.5,0-.9-.1-1.4h0c.2.2.5.3.7.4,3.1,1.3,6,2.8,8.8,4.7l1-1.8c-3.4-2-6.9-3.7-10.5-5v-4.5c0-.8,0-1.7.1-2.5h-2c.1.8.2,1.6.1,2.4v14.8c0,.8,0,1.7-.1,2.5h2.1ZM304.7,3.4c1,1.2,1.8,2.4,2.4,3.8l1.2-.7c-.7-1.3-1.5-2.5-2.4-3.7l-1.2.6h0ZM307.4,2.1c1,1.1,1.8,2.4,2.4,3.7l1.2-.7c-.7-1.3-1.5-2.5-2.5-3.7,0,.1-1.1.7-1.1.7ZM334.1,3.2c-.3,0-1,.2-2,.2h-12.7c-.9,0-1.9,0-2.8-.2v1.8h16.3c-.7,1.3-1.6,2.5-2.6,3.5-1.1,1-2.4,1.8-3.7,2.2.5.4.9.8,1.2,1.4,3-1.4,5.5-3.8,6.9-6.8.1-.3.3-.7.6-.9l-1.2-1.1h0ZM323.8,7.4c.1.4.1.9.1,1.3,0,4.6-.9,7-3.4,9-1.3,1-2.8,1.8-4.3,2.2.5.5.8,1,1.1,1.6,2.4-.8,4.5-2.2,6.1-4.1,1.7-2.4,2.6-5.4,2.3-8.3,0-.6,0-1.1.1-1.7h-2ZM354.7,4.2h-11.6c-.9,0-1.8,0-2.7-.2v1.9c.9,0,1.8-.2,2.6,0h12.1c-.7,3.1-2.1,6-4.2,8.4-2.3,2.5-5.3,4.4-8.7,5.4.5.5.9,1,1.2,1.6,3.3-1.2,6.2-3.1,8.6-5.6,2.4-2.7,4-5.9,4.8-9.4h.8c1.5,0,2.7-1.2,2.7-2.7h0c0-1.5-1.2-2.7-2.7-2.7s-2.7,1.2-2.7,2.7h0c0,.2,0,.5.1.7h-.3,0ZM357.8,1.8c.9,0,1.7.8,1.7,1.7s-.7,1.7-1.7,1.7h0c-.9,0-1.7-.8-1.7-1.7h0c0-.9.8-1.7,1.7-1.7h0ZM366.4,2.5c.1.7.1,1.3.1,2v6.3c0,.7,0,1.3-.1,2h2c-.1-.6-.1-1.3-.1-2v-6.4c0-.7,0-1.3.1-2h-2ZM376.9,2.5c.1.7.1,1.4.1,2.1v2.7c.1,2,0,4-.3,6-.4,2.2-1.8,4-3.8,5-1.4.8-2.9,1.3-4.5,1.6.4.5.8,1,1,1.6,1.5-.4,3-1,4.3-1.7,2.1-1.1,3.8-3,4.5-5.3.5-2.4.7-4.8.6-7.2v-2.8c0-.7,0-1.4.1-2.1h-2q0,0,0,.1Z"/>
        </g>
        <path id="_パス_3559-5" class="cls-2" d="M1.8,48.9h0c-2.4-2.4-2.4-6.4,0-8.8l22.3-22h0c2.4-2.4,6.3-2.3,8.7.1l36.5,36.9h0c2.4,2.4,2.4,6.3,0,8.7l-22.2,22.1c-2.4,2.4-6.3,2.3-8.7,0L1.8,48.9"/>
        <path id="_パス_3559-5-2" class="cls-4" d="M7.4,32.5h0c-1.7-3-.7-6.8,2.3-8.5l27.1-15.6h0c2.9-1.7,6.7-.6,8.4,2.3l25.9,45h0c1.7,2.9.7,6.7-2.3,8.4l-27,15.6c-2.9,1.7-6.7.6-8.4-2.3L7.4,32.5"/>
        <path id="_パス_3559-5-3" class="cls-5" d="M16.8,18h0c-.8-3.3,1.2-6.7,4.5-7.5l30.3-7.7h0c3.3-.8,6.6,1.2,7.5,4.5l12.7,50.3h0c.9,3.3-1.2,6.6-4.5,7.5l-30.3,7.8c-3.3.8-6.6-1.2-7.5-4.5l-12.7-50.4"/>
        <path id="_パス_3559-5-4" class="cls-3" d="M74.1,8.5l.2,51.9c0,3.4-2.8,6.2-6.1,6.2h-31.3c-3.4,0-6.2-2.7-6.2-6h0l-.3-51.9c0-3.4,2.8-6.2,6.1-6.2h31.3c3.4-.2,6.3,2.5,6.3,6h0"/>
        <path id="_パス_3559-5-5" class="cls-7" d="M87.8,17.8l-12.7,50.4c-.9,3.3-4.2,5.3-7.5,4.5l-30.4-7.7c-3.3-.9-5.3-4.2-4.5-7.5h0L45.5,7.1c.9-3.3,4.2-5.3,7.5-4.5h0l30.3,7.7c3.2.9,5.3,4.2,4.5,7.5h0"/>
        <path id="_パス_3559-5-6" class="cls-6" d="M97.1,32.3l-25.9,45c-1.7,2.9-5.5,4-8.4,2.3l-27.2-15.7c-2.9-1.7-4-5.5-2.3-8.4h0L59.2,10.5c1.7-2.9,5.5-4,8.4-2.3h0l27.1,15.6c3,1.7,4.1,5.5,2.4,8.5h0"/>
        <path id="_パス_3559-5-7" class="cls-1" d="M102.8,48.8l-36.5,36.9c-2.4,2.4-6.3,2.5-8.7,0l-22.3-22.1c-2.4-2.4-2.5-6.3,0-8.7h0l36.5-37c2.4-2.4,6.3-2.5,8.7-.1h0l22.3,22c2.4,2.4,2.4,6.4,0,8.9h0"/>
        <path id="_パス_3493" class="cls-8" d="M50.3,69.1h4c.7,0,1.4-.3,2-.7.5-.4.9-1.1,1.1-1.8l1.1-4.5c.3,0,.6-.2.9-.4.3-.2.7-.3.9-.4l3.9,2.4c.6.4,1.3.6,2,.5.7,0,1.4-.3,1.8-.9l2.7-2.8c.5-.5.8-1.1.9-1.8,0-.7-.2-1.4-.5-2l-2.4-3.9c.2-.3.3-.6.5-.9,0-.3.2-.6.3-.8l4.5-1.1c.7,0,1.3-.5,1.7-1.1.4-.5.7-1.2.7-2v-3.9c0-.7-.3-1.4-.7-1.9-.5-.5-1.1-.9-1.7-1l-4.5-1.1c0-.3-.3-.7-.4-1s-.3-.5-.4-.8l2.5-4.1c.4-.6.5-1.3.5-2s-.4-1.3-.9-1.8l-2.8-2.7c-.5-.5-1.1-.8-1.8-.9-.7-.1-1.3.1-1.9.4l-4.1,2.5c-.3-.2-.7-.3-1-.4s-.6-.2-.9-.3l-1.1-4.6c0-.7-.5-1.3-1.1-1.7-.5-.5-1.2-.7-2-.7h-4c-1.4-.1-2.8.9-3,2.4l-1,4.6c-.3.1-.7.3-1,.4s-.7.3-1,.5l-4-2.5c-.6-.3-1.3-.5-1.9-.4-.7.1-1.3.4-1.8.9l-2.7,2.8c-.5.5-.9,1.1-.9,1.8s0,1.4.4,2l2.5,4.1c0,.3-.2.5-.3.8s-.3.7-.4.9l-4.5,1.1c-1.4.2-2.5,1.4-2.4,2.9v3.8c0,.7.3,1.4.7,2,.4.5,1.1.9,1.7,1.1l4.5,1.1c0,.3.3.5.4.8,0,.3.3.6.3.9l-2.3,4c-.4.6-.6,1.3-.5,2s.4,1.3.9,1.8l2.7,2.8c.5.5,1.1.9,1.8.9s1.4-.2,2-.5l4-2.4c.3.2.7.3,1,.4.3,0,.6.3.9.3l1,4.5c0,.7.5,1.3,1.1,1.8.6.4,1.3.7,2,.6h0ZM52.4,52.7c-4.2,0-7.7-3.4-7.7-7.6s.8-4,2.2-5.4c1.4-1.5,3.4-2.3,5.5-2.3s4,.8,5.3,2.2c1.4,1.4,2.3,3.4,2.2,5.5,0,4.1-3.3,7.5-7.5,7.6h0Z"/>
      </g>
    </g>
  </g>
</svg>