<?xml version="1.0" encoding="UTF-8"?><svg id="_レイヤー_1" xmlns="http://www.w3.org/2000/svg" viewBox="0 0 700 700"><defs><style>.cls-1{fill:none;}.cls-1,.cls-2,.cls-3,.cls-4,.cls-5,.cls-6,.cls-7,.cls-8,.cls-9{stroke-width:0px;}.cls-2{fill:#ffec00;}.cls-2,.cls-3,.cls-4,.cls-5,.cls-6,.cls-7,.cls-8{isolation:isolate;opacity:.7;}.cls-3{fill:#f38200;}.cls-4{fill:#b40019;}.cls-5{fill:#1d3070;}.cls-6{fill:#431274;}.cls-7{fill:#008a32;}.cls-8{fill:#006ab8;}.cls-9{fill:#1d1d1f;}</style></defs><path id="_パス_3559-5" class="cls-6" d="m45.68,317.58h0c-14.32-14.67-14.23-38.53.18-52.92l134.03-132.49h0c14.58-14.23,38.16-13.86,52.74.45l219.89,222.58h0c14.58,14.32,14.23,38.07-.36,52.47l-133.84,133.03c-14.58,14.23-38.16,13.86-52.74-.45L45.68,317.58"/><path id="_パス_3559-5-2" class="cls-5" d="m79.71,218.39h0c-10.27-17.82-3.96-40.86,13.68-50.95l163.36-94.23h0c17.64-10.09,40.41-3.69,50.86,13.86l156.34,271h0c10.44,17.64,4.14,40.23-13.68,50.68l-163.27,94.5c-17.64,10.09-40.41,3.69-50.86-13.86L79.71,218.39"/><path id="_パス_3559-5-3" class="cls-8" d="m136.05,131.27h0c-4.86-19.98,7.38-40.41,27-45.54l182.89-46.18h0c19.8-4.86,39.87,7.38,45.18,27.18l76.59,303.41h0c5.31,19.71-6.93,39.87-26.83,45.18l-183.08,46.54c-19.8,4.86-39.87-7.38-45.18-27.18l-76.58-303.41"/><path id="_パス_3559-5-4" class="cls-7" d="m481.67,73.66l1.17,312.95c-.18,20.52-16.56,37.44-36.99,37.62l-188.83.45c-20.52-.18-37.44-16.56-37.35-36.99h0l-1.17-312.95c.18-20.52,16.56-37.44,36.99-37.62h0l188.73-.63c20.16-.18,37.26,16.65,37.44,37.17h0"/><path id="_パス_3559-5-5" class="cls-2" d="m564.03,130.27l-76.59,303.32c-5.31,19.8-25.29,32.13-45.18,27.18l-183.08-46.54c-19.8-5.31-32.13-25.29-26.91-45.18h0l76.6-303.32c5.31-19.8,25.29-32.13,45.18-27.18h0l182.98,46.17c19.53,5.13,32.04,25.56,27,45.54h0"/><path id="_パス_3559-5-6" class="cls-3" d="m620.19,217.4l-156.34,271c-10.44,17.64-33.12,23.94-50.86,13.86l-163.45-94.69c-17.64-10.44-23.94-33.12-13.68-50.68h0L392.2,85.99c10.44-17.64,33.12-23.94,50.86-13.86h0l163.45,94.14c17.64,10.27,23.94,33.3,13.68,51.13h0"/><path id="_パス_3559-5-7" class="cls-4" d="m654.4,316.5l-219.98,222.58c-14.58,14.32-38.16,14.85-52.74.45l-134.11-132.94c-14.32-14.58-14.85-38.16-.36-52.47h0l219.8-222.58c14.58-14.32,38.16-14.85,52.74-.45h0l134.11,132.58c14.67,14.23,14.85,38.16.54,52.83h0"/><g id="_グループ_9080"><g id="_マスクグループ_7001"><path id="_パス_3564" class="cls-9" d="m205.58,645.42c-1.67,5.76-3.69,11.42-6.02,16.95-6.66,1.61-13.48,2.5-20.33,2.63-26.73,0-40.29-17.69-40.29-37.28,0-22.6,17.32-38.41,42.18-38.41,7.09.32,14.14,1.21,21.09,2.63.43,5.81,1.18,11.59,2.26,17.32l-3.39.76c-2.26-7.54-4.88-12.05-10.54-14.3-3.71-1.5-7.67-2.27-11.67-2.26-18.45,0-27.88,13.56-27.88,32.01,0,21.47,11.3,35.4,28.99,35.4,11.3,0,16.95-5.27,22.6-16.19l3.02.76h-.01Z"/><path id="_パス_3565" class="cls-9" d="m249.65,664.62c-1.99-.02-3.88-.83-5.27-2.26-1.37-1.31-2.29-3.02-2.63-4.88-3.83,3.29-8.33,5.73-13.17,7.14-7.46.03-13.52-5.99-13.56-13.45v-.11c.03-5.41,3.78-10.09,9.06-11.3,6.11-1.83,12.03-4.22,17.69-7.16v-2.26c0-7.91-4.14-12.43-9.76-12.43-2.1-.09-4.08.91-5.27,2.63-1.38,2.2-2.4,4.63-3.01,7.16-.33,1.59-1.77,2.71-3.39,2.63-2.56-.31-4.57-2.33-4.88-4.88,0-1.5,1.5-3.01,3.76-4.52,4.78-3.74,10.3-6.44,16.19-7.91,8.11-.21,14.85,6.2,15.06,14.3v23.35c0,5.27,1.89,6.78,3.76,6.78,1.45-.02,2.87-.41,4.14-1.13l1.13,3.01-9.87,5.27h.01Zm-8.28-28.24c-2.26,1.13-7.91,3.39-10.17,4.52-4.14,1.89-6.78,4.14-6.78,8.28-.35,4.43,2.96,8.3,7.39,8.65h.5c3.43-.18,6.68-1.66,9.06-4.14l-.02-17.33h.01Z"/><path id="_パス_3566" class="cls-9" d="m289.21,663.11h-25.6v-3.01c7.16-.76,7.54-1.13,7.54-8.28v-23c0-7.16-.37-7.54-6.78-8.28v-2.63c5.45-.8,10.76-2.33,15.82-4.52v12.43c3.76-5.65,8.67-12.05,13.94-12.05,3.09-.33,5.9,1.81,6.39,4.88v.37c0,2.57-1.46,4.9-3.76,6.02-.81.75-2.07.69-2.82-.12-.08-.08-.13-.16-.2-.25-1.14-1.57-2.94-2.53-4.88-2.63-2.26,0-6.39,3.39-9.06,9.06v21.09c0,7.16.37,7.91,9.06,8.67l.35,2.28v-.02Z"/><path id="_パス_3567" class="cls-9" d="m359.23,660.48c-5.9.8-11.7,2.18-17.32,4.14v-7.54c-2.34,1.24-4.61,2.62-6.78,4.14-2.57,1.83-5.54,2.99-8.67,3.39-12.34-1.31-21.47-12.09-20.71-24.48.5-15.35,13.26-27.43,28.62-27.11,2.56-.02,5.1.36,7.54,1.13v-16.18c0-7.16-.76-7.16-8.67-7.91v-3.01c5.88-.68,11.67-1.95,17.29-3.78v67.03c0,5.65.76,6.39,4.88,6.78l3.39.37.42,3.03h.01Zm-17.32-37.63c-2.74-3.66-7.1-5.77-11.67-5.65-5.27,0-14.69,3.39-14.69,19.58,0,13.56,8.28,20.71,15.43,20.71,3.99-.16,7.82-1.62,10.92-4.14v-30.5h0Z"/><path id="_パス_3568" class="cls-9" d="m391.98,641.27h-25.6l.76-6.78h25.6l-.76,6.78Z"/><path id="_パス_3569" class="cls-9" d="m441.68,607.76c-1.89-7.16-4.88-14.69-15.43-14.69-6.07-.37-11.29,4.24-11.66,10.31,0,.08,0,.16-.01.24v1.5c0,7.54,4.88,11.67,14.3,16.19,13.18,6.78,19.24,12.05,19.24,22.58,0,11.67-10.17,20.71-24.48,20.71-5.85-.09-11.62-1.37-16.95-3.76-1.13-5.65-2.26-10.92-3.01-16.56l3.39-.76c1.5,9.38,9.33,16.43,18.82,16.95,6.75.32,12.47-4.9,12.78-11.64v-1.17c0-8.67-4.52-12.05-14.3-17.32-11.67-6.39-18.08-11.67-18.08-21.84s8.28-19.21,23-19.21c4.97.2,9.89.95,14.69,2.26.37,4.14.76,8.28,1.89,15.82l-4.18.39h-.01Z"/><path id="_パス_3570" class="cls-9" d="m492.14,664.62c-1.99-.02-3.88-.83-5.27-2.26-1.24-1.4-2.14-3.07-2.63-4.88-3.83,3.3-8.33,5.74-13.18,7.16-7.46.03-13.52-5.99-13.56-13.45v-.11c.03-5.41,3.78-10.09,9.06-11.3,6.1-1.83,12.02-4.23,17.67-7.17v-2.26c0-7.91-4.14-12.43-9.76-12.43-2.1-.09-4.08.91-5.27,2.63-1.38,2.2-2.4,4.63-3.01,7.16-.33,1.62-1.8,2.74-3.46,2.63-2.56-.31-4.57-2.33-4.88-4.88,0-1.5,1.5-3.01,3.76-4.52,4.78-3.74,10.3-6.44,16.19-7.91,8.11-.21,14.85,6.2,15.06,14.3v23.35c0,5.27,1.89,6.78,3.76,6.78,1.45-.02,2.87-.41,4.14-1.13l1.13,3.01-9.77,5.25h.01Zm-8.28-28.24c-2.26,1.13-7.91,3.39-10.17,4.52-4.14,1.89-6.78,4.14-6.78,8.28-.35,4.43,2.96,8.3,7.39,8.65h.5c3.43-.18,6.68-1.66,9.06-4.14l-.02-17.33h.01Z"/><path id="_パス_3571" class="cls-9" d="m538.08,663.11v-3.01c6.39-.76,7.16-1.5,7.16-9.06v-18.43c0-7.91-2.63-13.18-10.17-13.18-4.67.36-9.08,2.36-12.43,5.65v25.99c0,7.54.76,7.91,7.16,8.67v3.01h-23.73v-3.01c7.16-.76,7.91-1.13,7.91-8.67v-23c0-7.16-.76-7.54-6.78-8.67v-3.01c5.34-.76,10.54-2.27,15.43-4.52v8.67c2.26-1.5,4.52-3.39,7.54-5.27,2.81-1.9,6.04-3.06,9.41-3.39,9.06,0,14.3,6.39,14.3,17.32v21.09c0,7.54.76,7.91,7.16,8.67v3.01l-22.99,1.15h.01Z"/></g></g><rect class="cls-1" width="700" height="700"/><rect class="cls-1" x="35" y="35" width="630" height="630"/></svg>