<svg xmlns="http://www.w3.org/2000/svg" width="50" height="34" viewBox="0 0 50 34">
  <g id="组_6518" data-name="组 6518" transform="translate(-1127 -1703)">
    <rect id="Frame" width="50" height="34" transform="translate(1127 1703)" fill="none"/>
    <g id="组_6132" data-name="组 6132" transform="translate(2427 -2038.904)">
      <path id="路径_3073" data-name="路径 3073" d="M9.04,18.32a3.13,3.13,0,1,0-3.13-3.13,3.13,3.13,0,0,0,3.13,3.13Z" transform="translate(-1291.823 3741.232)" fill="#707070"/>
      <path id="路径_3074" data-name="路径 3074" d="M11.687,18.858a.491.491,0,0,0-.457,0,3.655,3.655,0,0,1-4.392,0,.567.567,0,0,0-.457,0A7.145,7.145,0,0,0,5,21.825c-.348,2.42,1.858,3.293,3.975,3.293s4.352-.873,3.975-3.293A7.364,7.364,0,0,0,11.687,18.858Z" transform="translate(-1292.031 3741.182)" fill="#707070"/>
      <rect id="矩形_1673" data-name="矩形 1673" width="11.291" height="1.57" transform="translate(-1274.964 3753.617)" fill="#707070"/>
      <rect id="矩形_1674" data-name="矩形 1674" width="11.291" height="1.57" transform="translate(-1274.964 3759.294)" fill="#707070"/>
      <rect id="矩形_1675" data-name="矩形 1675" width="8.943" height="1.57" transform="translate(-1275.085 3764.97)" fill="#707070"/>
      <path id="路径_3072" data-name="路径 3072" d="M11.956,5.6H3.919A4.037,4.037,0,0,0,0,9.709V26.056a4.166,4.166,0,0,0,1.728,3.405,3.874,3.874,0,0,0,2.192.694H30.08a3.737,3.737,0,0,0,1.53-.327A4.148,4.148,0,0,0,34,26.036V9.689A3.982,3.982,0,0,0,33.7,8.1a4.023,4.023,0,0,0-1.417-1.8A3.874,3.874,0,0,0,30.089,5.6ZM32.111,26.036a2.28,2.28,0,0,1-.161.832,2.038,2.038,0,0,1-.737.99,1.974,1.974,0,0,1-1.143.366H3.929a2,2,0,0,1-.793-.168,2.035,2.035,0,0,1-.9-.772,2.152,2.152,0,0,1-.349-1.238V9.7a2.239,2.239,0,0,1,.161-.832,2.074,2.074,0,0,1,.784-.891A1.974,1.974,0,0,1,3.976,7.61h7.489l-.151.535a.874.874,0,0,0,.132.762.828.828,0,0,0,.661.347h9.746a.808.808,0,0,0,.7-.35.9.9,0,0,0,.109-.808l-.151-.535h7.555a2,2,0,0,1,.793.168,2.029,2.029,0,0,1,.944.772,2.218,2.218,0,0,1,.3,1.2Z" transform="translate(-1292 3741.303)" fill="#707070"/>
    </g>
  </g>
</svg>
