<svg xmlns="http://www.w3.org/2000/svg" width="28" height="28" viewBox="0 0 28 28">
  <g id="组_7379" data-name="组 7379" transform="translate(-5726.469 -1388.469)">
    <path id="路径_3469" data-name="路径 3469" d="M15.658,30.858a13.409,13.409,0,0,0,5.4-1.1,14.353,14.353,0,0,0,7.494-7.494,13.469,13.469,0,0,0,1.1-5.411,13.409,13.409,0,0,0-1.1-5.4,14.432,14.432,0,0,0-3.033-4.475,14.083,14.083,0,0,0-4.467-3.026,13.562,13.562,0,0,0-5.4-1.088,13.51,13.51,0,0,0-5.4,1.088,14.313,14.313,0,0,0-7.5,7.5,13.485,13.485,0,0,0-1.1,5.4,13.393,13.393,0,0,0,1.1,5.411,14.42,14.42,0,0,0,7.494,7.494A13.393,13.393,0,0,0,15.658,30.858Zm-.735-5.865a.812.812,0,0,1-.526-.18.787.787,0,0,1-.281-.483l-.418-1.7q-.2-.058-.411-.137a2.555,2.555,0,0,1-.382-.18l-1.484.908a.766.766,0,0,1-.533.144.872.872,0,0,1-.519-.245l-.98-.98a.9.9,0,0,1-.259-.533.78.78,0,0,1,.159-.548l.893-1.47a2.82,2.82,0,0,1-.173-.389q-.072-.2-.144-.389l-1.686-.4a.761.761,0,0,1-.663-.821v-1.4a.769.769,0,0,1,.663-.836l1.672-.4q.072-.216.159-.418t.159-.36l-.893-1.484a.9.9,0,0,1-.151-.555.8.8,0,0,1,.252-.512l.994-.994a.794.794,0,0,1,1.038-.115l1.484.922a2.333,2.333,0,0,1,.4-.195q.209-.079.411-.151L14.116,9.4a.818.818,0,0,1,.281-.49.793.793,0,0,1,.526-.187h1.441a.821.821,0,0,1,.533.187.8.8,0,0,1,.288.49l.4,1.686q.231.086.432.173t.375.173l1.484-.922a.8.8,0,0,1,1.023.115l1.023.994a.8.8,0,0,1,.252.512.852.852,0,0,1-.166.555l-.879,1.484q.058.159.144.36t.159.418l1.686.4a.769.769,0,0,1,.663.836v1.4a.761.761,0,0,1-.663.821l-1.7.4q-.058.187-.137.389t-.166.389L22,21.058a.78.78,0,0,1,.159.548.9.9,0,0,1-.259.533l-.98.98a.872.872,0,0,1-.519.245.766.766,0,0,1-.533-.144l-1.47-.908a2.555,2.555,0,0,1-.382.18,4.379,4.379,0,0,1-.425.137l-.4,1.7a.774.774,0,0,1-.288.483.842.842,0,0,1-.533.18Zm.721-5.418a2.6,2.6,0,0,0,1.931-.807,2.713,2.713,0,0,0-1.931-4.626,2.705,2.705,0,0,0-1.909,4.626A2.6,2.6,0,0,0,15.643,19.574Z" transform="translate(5724.819 1385.612)" fill="#707070"/>
  </g>
</svg>
