<svg xmlns="http://www.w3.org/2000/svg" width="30" height="30" viewBox="0 0 30 30">
  <g id="组_5607" data-name="组 5607" transform="translate(-46 -130)">
    <rect id="矩形_1823" data-name="矩形 1823" width="30" height="30" transform="translate(46 130)" fill="none"/>
    <g id="组_4347" data-name="组 4347" transform="translate(46 135)">
      <g id="カード_icon_2" transform="translate(0)">
        <path id="路径_3072" data-name="路径 3072" d="M10.55,5.6H3.458A3.42,3.42,0,0,0,0,8.947V22.261a3.318,3.318,0,0,0,1.524,2.774,3.618,3.618,0,0,0,1.934.565H26.541a3.532,3.532,0,0,0,1.35-.266A3.37,3.37,0,0,0,30,22.245V8.931a3.026,3.026,0,0,0-.267-1.3,3.333,3.333,0,0,0-1.25-1.468A3.618,3.618,0,0,0,26.55,5.6ZM28.333,22.245a1.733,1.733,0,0,1-.142.677,1.679,1.679,0,0,1-.65.806,1.843,1.843,0,0,1-1.008.3H3.467a1.9,1.9,0,0,1-.7-.137,1.764,1.764,0,0,1-.792-.629,1.655,1.655,0,0,1-.308-1.008V8.939a1.7,1.7,0,0,1,.142-.677A1.741,1.741,0,0,1,2.5,7.535a1.843,1.843,0,0,1,1.008-.3h6.608l-.133.435a.668.668,0,0,0,.117.621.75.75,0,0,0,.583.282h8.6a.734.734,0,0,0,.621-.285.683.683,0,0,0,.1-.658L19.866,7.2h6.667a1.9,1.9,0,0,1,.7.137,1.768,1.768,0,0,1,.833.629,1.7,1.7,0,0,1,.267.976Z" transform="translate(0 -5.6)" fill="rgba(29,29,31,0.9)"/>
        <path id="路径_3073" data-name="路径 3073" d="M8.529,17.3A2.619,2.619,0,1,0,5.91,14.679,2.619,2.619,0,0,0,8.529,17.3Z" transform="translate(-0.983 -6.905)" fill="rgba(29,29,31,0.9)"/>
        <path id="路径_3074" data-name="路径 3074" d="M10.589,18.842a.474.474,0,0,0-.382,0,3.484,3.484,0,0,1-3.675,0,.549.549,0,0,0-.382,0,4.814,4.814,0,0,0-1.156,2.12c-.291,1.729,1.555,2.353,3.326,2.353s3.642-.624,3.326-2.353A4.9,4.9,0,0,0,10.589,18.842Z" transform="translate(-0.837 -8.248)" fill="rgba(29,29,31,0.9)"/>
        <rect id="矩形_1673" data-name="矩形 1673" width="11.864" height="1.314" transform="translate(13.671 5.722)" fill="rgba(29,29,31,0.9)"/>
        <rect id="矩形_1674" data-name="矩形 1674" width="11.864" height="1.314" transform="translate(13.671 9.303)" fill="rgba(29,29,31,0.9)"/>
        <rect id="矩形_1675" data-name="矩形 1675" width="7.483" height="1.314" transform="translate(13.644 12.892)" fill="rgba(29,29,31,0.9)"/>
      </g>
    </g>
  </g>
</svg>
