<svg xmlns="http://www.w3.org/2000/svg" width="20" height="20" viewBox="0 0 20 20">
  <g id="组_7073" data-name="组 7073" transform="translate(2504 -3299)">
    <rect id="矩形_2091" data-name="矩形 2091" width="20" height="20" transform="translate(-2504 3299)" fill="none"/>
    <g id="组_6936" data-name="组 6936" transform="translate(-2682.147 2756.185)">
      <g id="组_6525" data-name="组 6525" transform="translate(179.147 543.815)">
        <g id="组_6524" data-name="组 6524">
          <g id="组_4334" data-name="组 4334">
            <path id="路径_3058" data-name="路径 3058" d="M15.835,16.24H3.8a1.905,1.905,0,0,0-1.86,1.943v2.374l.545.082a.678.678,0,0,1,0,1.333l-.545.082v2.374A1.905,1.905,0,0,0,3.8,26.373H15.835a1.905,1.905,0,0,0,1.86-1.943v-2.42l-.609-.031a.675.675,0,0,1,0-1.344l.6-.031v-2.42A1.9,1.9,0,0,0,15.835,16.24Zm1.222,3.728a1.344,1.344,0,0,0,0,2.677v1.785a1.25,1.25,0,0,1-1.222,1.277H3.8a1.251,1.251,0,0,1-1.222-1.277v-1.8a1.346,1.346,0,0,0,0-2.646v-1.8A1.25,1.25,0,0,1,3.8,16.907H15.835a1.251,1.251,0,0,1,1.222,1.277Z" transform="translate(-1.101 -8.498)" fill="#707070"/>
            <path id="パス_3058_-_アウトライン" data-name="パス 3058 - アウトライン" d="M3.674,15.99H15.711a2.028,2.028,0,0,1,1.98,2.069V20.6l-.722.037a.549.549,0,0,0,0,1.094l.727.037V24.3a2.03,2.03,0,0,1-1.984,2.069H3.674A2.03,2.03,0,0,1,1.69,24.3V21.822l.651-.1a.553.553,0,0,0,0-1.086l-.651-.1V18.059A2.03,2.03,0,0,1,3.674,15.99Zm13.768,4.37v-2.3a1.779,1.779,0,0,0-1.732-1.818H3.674a1.781,1.781,0,0,0-1.736,1.818v2.266l.439.066a.8.8,0,0,1,0,1.581l-.438.066V24.3a1.781,1.781,0,0,0,1.736,1.818H15.711A1.781,1.781,0,0,0,17.448,24.3V22l-.491-.025a.8.8,0,0,1,0-1.593Zm-13.768-3.7H15.711a1.377,1.377,0,0,1,1.346,1.4v1.9l-.117.006a1.219,1.219,0,0,0,0,2.427l.118.006v1.9a1.377,1.377,0,0,1-1.346,1.4H3.674a1.377,1.377,0,0,1-1.346-1.4V22.4l.106-.016a1.2,1.2,0,0,0,.994-1.2,1.185,1.185,0,0,0-.994-1.2l-.106-.016V18.059A1.377,1.377,0,0,1,3.674,16.657Zm13.135,3.073V18.059a1.127,1.127,0,0,0-1.1-1.152H3.674a1.127,1.127,0,0,0-1.1,1.152v1.7a1.4,1.4,0,0,1,.754.465,1.5,1.5,0,0,1,.345.962,1.458,1.458,0,0,1-1.1,1.427v1.7a1.127,1.127,0,0,0,1.1,1.152H15.711a1.127,1.127,0,0,0,1.1-1.152V22.634a1.474,1.474,0,0,1,0-2.9Z" transform="translate(-0.976 -8.373)" fill="#707070"/>
            <rect id="矩形_1666" data-name="矩形 1666" width="0.441" height="1.149" transform="translate(4.471 15.255)" fill="#707070"/>
            <path id="長方形_1666_-_アウトライン" data-name="長方形 1666 - アウトライン" d="M-.25-.25H.441v1.4H-.25ZM.191,0H0V.9H.191Z" transform="translate(4.596 15.379)" fill="#707070"/>
            <rect id="矩形_1667" data-name="矩形 1667" width="0.441" height="1.149" transform="translate(4.471 13.383)" fill="#707070"/>
            <path id="長方形_1667_-_アウトライン" data-name="長方形 1667 - アウトライン" d="M-.25-.25H.441v1.4H-.25ZM.191,0H0V.9H.191Z" transform="translate(4.596 13.508)" fill="#707070"/>
            <rect id="矩形_1668" data-name="矩形 1668" width="0.441" height="1.149" transform="translate(4.471 11.451)" fill="#707070"/>
            <path id="長方形_1668_-_アウトライン" data-name="長方形 1668 - アウトライン" d="M-.25-.25H.441v1.4H-.25ZM.191,0H0V.9H.191Z" transform="translate(4.596 11.575)" fill="#707070"/>
            <rect id="矩形_1669" data-name="矩形 1669" width="0.441" height="1.149" transform="translate(4.471 9.523)" fill="#707070"/>
            <path id="長方形_1669_-_アウトライン" data-name="長方形 1669 - アウトライン" d="M-.25-.25H.441v1.4H-.25ZM.191,0H0V.9H.191Z" transform="translate(4.596 9.648)" fill="#707070"/>
            <path id="路径_3059" data-name="路径 3059" d="M7.445,12.7l-.385.215.559,1L8,13.705Z" transform="translate(-3.735 -6.33)" fill="#707070"/>
            <path id="パス_3059_-_アウトライン" data-name="パス 3059 - アウトライン" d="M7.323,12.359,8,13.584l-.6.33L6.72,12.7Zm.34,1.126L7.226,12.7l-.166.093.437.783Z" transform="translate(-3.564 -6.16)" fill="#707070"/>
            <path id="路径_3060" data-name="路径 3060" d="M17.5,6.449l-.832-1.564-.3-.554-.547.282a.631.631,0,0,1-.852-.277.686.686,0,0,1,.227-.9l.517-.333-.3-.554L14.592.993A1.835,1.835,0,0,0,12.055.239L1.5,6.352A1.993,1.993,0,0,0,.78,8.993l.03.056a2.575,2.575,0,0,1,.429-.626,1.3,1.3,0,0,1,.576-1.492L12.365.819a1.2,1.2,0,0,1,1.67.5l.832,1.559a1.371,1.371,0,0,0-.448,1.79,1.265,1.265,0,0,0,1.694.549l.832,1.564A1.311,1.311,0,0,1,16.823,8.2a2.7,2.7,0,0,1,.438.487A2.01,2.01,0,0,0,17.5,6.449Z" transform="translate(-0.422 0.128)" fill="#707070"/>
            <path id="パス_3060_-_アウトライン" data-name="パス 3060 - アウトライン" d="M.687,9.2.544,8.926a2.119,2.119,0,0,1,.772-2.808L11.869.006a1.926,1.926,0,0,1,.962-.259A1.991,1.991,0,0,1,14.577.809L15.76,3.024l-.614.4a.559.559,0,0,0-.184.733.516.516,0,0,0,.454.282.506.506,0,0,0,.233-.057l.655-.338.353.662.833,1.564a2.137,2.137,0,0,1-.257,2.382l-.1.12-.092-.129a2.563,2.563,0,0,0-.418-.465l-.092-.079L16.6,8a1.177,1.177,0,0,0,.111-1.288l-.778-1.461a1.352,1.352,0,0,1-.514.1A1.406,1.406,0,0,1,14.186,4.6a1.5,1.5,0,0,1,.4-1.888L13.8,1.251a1.1,1.1,0,0,0-.965-.594A1.065,1.065,0,0,0,12.3.8L1.75,6.915a1.168,1.168,0,0,0-.519,1.348l.021.069L1.2,8.384a2.455,2.455,0,0,0-.408.6ZM12.831,0a1.679,1.679,0,0,0-.838.226L1.44,6.335A1.864,1.864,0,0,0,.69,8.654a2.669,2.669,0,0,1,.285-.389A1.417,1.417,0,0,1,1.626,6.7L12.179.585a1.311,1.311,0,0,1,.658-.179,1.345,1.345,0,0,1,1.184.725l.887,1.661-.1.063A1.245,1.245,0,0,0,14.4,4.481a1.158,1.158,0,0,0,1.017.62,1.113,1.113,0,0,0,.512-.124l.108-.055.89,1.672a1.431,1.431,0,0,1-.066,1.467,2.76,2.76,0,0,1,.274.3,1.885,1.885,0,0,0,.13-1.977L16.2,4.374l-.439.226a.753.753,0,0,1-1.018-.33.811.811,0,0,1,.27-1.062l.42-.271L14.359.928A1.743,1.743,0,0,0,12.831,0Z" transform="translate(-0.297 0.253)" fill="#707070"/>
          </g>
          <g id="组_4335" data-name="组 4335" transform="translate(8.794 10.735)">
            <path id="路径_3061" data-name="路径 3061" d="M20.97,23.674c0,.861-.436,1.349-1.1,1.349-.754,0-1.108-.595-1.108-1.333,0-.969.508-1.369,1.108-1.369C20.539,22.32,20.97,22.817,20.97,23.674Zm-1.538,0c0,.2,0,.774.436.774s.436-.574.436-.774,0-.779-.436-.779S19.432,23.464,19.432,23.674Zm.431,3.964,2.856-5.225h.7l-2.856,5.225Zm4.651-1.251c0,.861-.436,1.354-1.1,1.354-.754.005-1.108-.6-1.108-1.333,0-.974.508-1.374,1.108-1.374C24.083,25.033,24.513,25.535,24.513,26.386Zm-1.538,0c0,.2,0,.774.436.774s.436-.574.436-.774,0-.779-.436-.779S22.975,26.176,22.975,26.386Z" transform="translate(-18.635 -22.195)" fill="#707070"/>
            <path id="パス_3061_-_アウトライン" data-name="パス 3061 - アウトライン" d="M19.743,22.07c.757,0,1.228.567,1.228,1.479s-.47,1.474-1.228,1.474a1.125,1.125,0,0,1-.936-.439,1.672,1.672,0,0,1-.3-1.019,1.628,1.628,0,0,1,.362-1.132A1.143,1.143,0,0,1,19.743,22.07Zm0,2.7c.612,0,.977-.457.977-1.224s-.365-1.229-.977-1.229-.982.453-.982,1.244C18.76,23.848,18.831,24.772,19.743,24.772Zm2.777-2.61h.988l-2.993,5.476h-.988Zm.566.25h-.417l-2.719,4.975h.417Zm-3.348.232h.007a.512.512,0,0,1,.5.4,1.678,1.678,0,0,1,.061.5,1.653,1.653,0,0,1-.061.5.513.513,0,0,1-1,0,1.653,1.653,0,0,1-.061-.5,1.7,1.7,0,0,1,.06-.506A.507.507,0,0,1,19.737,22.644Zm.006,1.554c.215,0,.311-.2.311-.649s-.1-.654-.311-.654h-.006c-.086,0-.194.025-.257.224a1.488,1.488,0,0,0-.048.43C19.432,24,19.528,24.2,19.743,24.2Zm3.543.585c.757,0,1.228.567,1.228,1.479s-.47,1.479-1.228,1.479h-.009a1.112,1.112,0,0,1-.93-.443,1.681,1.681,0,0,1-.294-1.015,1.638,1.638,0,0,1,.361-1.137A1.141,1.141,0,0,1,23.286,24.783Zm-.009,2.708h.009c.613,0,.978-.459.978-1.229s-.365-1.229-.977-1.229-.982.455-.982,1.249a1.436,1.436,0,0,0,.244.866A.86.86,0,0,0,23.277,27.49Zm.009-2.133a.513.513,0,0,1,.5.4,1.7,1.7,0,0,1,.06.5,1.653,1.653,0,0,1-.061.5.513.513,0,0,1-1,0,1.653,1.653,0,0,1-.061-.5,1.684,1.684,0,0,1,.061-.507A.512.512,0,0,1,23.286,25.357Zm0,1.554c.215,0,.311-.2.311-.649s-.1-.654-.311-.654-.311.2-.311.654S23.071,26.911,23.286,26.911Z" transform="translate(-18.51 -22.07)" fill="#707070"/>
          </g>
        </g>
      </g>
    </g>
  </g>
</svg>
