<svg xmlns="http://www.w3.org/2000/svg" width="26" height="26" viewBox="0 0 26 26">
  <path id="路径_3460" data-name="路径 3460" d="M14.657,28.848a12.451,12.451,0,0,0,5.018-1.024,13.328,13.328,0,0,0,6.958-6.958,12.866,12.866,0,0,0-.007-10.043A13.4,13.4,0,0,0,23.81,6.668a13.077,13.077,0,0,0-4.148-2.81,12.593,12.593,0,0,0-5.018-1.01,12.545,12.545,0,0,0-5.011,1.01,13.29,13.29,0,0,0-6.965,6.965,12.866,12.866,0,0,0,.007,10.043,13.39,13.39,0,0,0,6.958,6.958A12.437,12.437,0,0,0,14.657,28.848Zm0-2.382a10.416,10.416,0,0,1-4.135-.823,10.633,10.633,0,0,1-5.66-5.667,10.629,10.629,0,0,1,5.654-13.93,10.441,10.441,0,0,1,4.128-.816,10.521,10.521,0,0,1,7.52,3.091,10.663,10.663,0,0,1,2.282,3.385,10.416,10.416,0,0,1,.823,4.135,10.255,10.255,0,0,1-.81,4.135,10.718,10.718,0,0,1-2.275,3.385,10.533,10.533,0,0,1-7.527,3.1Zm2.823-5.553-1.7-1.686a3.773,3.773,0,0,1-.549.154,2.931,2.931,0,0,1-.589.06,3.476,3.476,0,0,1-1.82-.488,3.712,3.712,0,0,1-1.3-1.311,3.462,3.462,0,0,1-.488-1.8,3.106,3.106,0,0,1,.214-1.164L8.8,12.228A11.213,11.213,0,0,0,7.224,13.58a7.345,7.345,0,0,0-1.017,1.3,2.084,2.084,0,0,0-.355.963,2.242,2.242,0,0,0,.415,1.071,7.935,7.935,0,0,0,1.191,1.432A11.144,11.144,0,0,0,9.325,19.8a10.946,10.946,0,0,0,2.429,1.131,9.17,9.17,0,0,0,2.89.442,8.818,8.818,0,0,0,1.465-.12A9.479,9.479,0,0,0,17.481,20.913Zm-3.171-3.171L12.73,16.162a1.483,1.483,0,0,0,.455,1.1A1.512,1.512,0,0,0,14.309,17.741Zm3.733-.749,2.449,2.462A10.278,10.278,0,0,0,22.064,18.1a7.641,7.641,0,0,0,1-1.3,2.084,2.084,0,0,0,.355-.963,2.264,2.264,0,0,0-.408-1.071,7.973,7.973,0,0,0-1.178-1.438,10.473,10.473,0,0,0-1.86-1.452,10.88,10.88,0,0,0-2.435-1.117,9.363,9.363,0,0,0-2.9-.435,9.16,9.16,0,0,0-1.465.114,9.006,9.006,0,0,0-1.358.328l1.686,1.673a3.76,3.76,0,0,1,.555-.147,3.176,3.176,0,0,1,.582-.054,3.524,3.524,0,0,1,1.813.482,3.6,3.6,0,0,1,1.3,1.3,3.513,3.513,0,0,1,.482,1.82A3.4,3.4,0,0,1,18.043,16.992Zm-3.064-3.064,1.566,1.566a1.561,1.561,0,0,0-.468-1.084A1.521,1.521,0,0,0,14.978,13.927Zm5.486,8.591a.628.628,0,0,0,.442.174.539.539,0,0,0,.415-.174.554.554,0,0,0,.187-.422.6.6,0,0,0-.187-.435L8.8,9.137a.6.6,0,0,0-.442-.187.561.561,0,0,0-.428.187.6.6,0,0,0,0,.843Z" transform="translate(-1.65 -2.848)" fill="#707070"/>
</svg>
