<svg xmlns="http://www.w3.org/2000/svg" xmlns:xlink="http://www.w3.org/1999/xlink" width="30" height="30" viewBox="0 0 30 30">
  <defs>
    <clipPath id="clip-path">
      <rect id="矩形_1881" data-name="矩形 1881" width="30" height="30" transform="translate(0 0)" fill="rgba(29,29,31,0.9)"/>
    </clipPath>
  </defs>
  <g id="组_6174" data-name="组 6174" transform="translate(27 6)">
    <g id="组_6173" data-name="组 6173" transform="translate(-27 -6)" clip-path="url(#clip-path)">
      <path id="路径_3389" data-name="路径 3389" d="M13.551,24.484A5.586,5.586,0,0,1,8.017,30.12a5.637,5.637,0,0,1,0-11.272,5.586,5.586,0,0,1,5.535,5.636" transform="translate(-1.345 -10.053)" fill="rgba(29,29,31,0.9)"/>
      <path id="路径_3390" data-name="路径 3390" d="M6.6,43.832a6.022,6.022,0,0,0,2.869-.717.951.951,0,0,1,1.333.454c1.5,3.831,2.326,4.781,2.523,8.453a.894.894,0,0,1-.925.909H6.69l-.055,0H.926A.894.894,0,0,1,0,52.026c.2-3.672,1.024-4.622,2.523-8.453a.952.952,0,0,1,1.333-.453,6.031,6.031,0,0,0,2.87.717Z" transform="translate(0 -22.934)" fill="rgba(29,29,31,0.9)"/>
      <path id="路径_3391" data-name="路径 3391" d="M49.936,24.484A5.536,5.536,0,1,1,44.4,18.848a5.586,5.586,0,0,1,5.535,5.636" transform="translate(-21.057 -10.053)" fill="rgba(29,29,31,0.9)"/>
      <path id="路径_3392" data-name="路径 3392" d="M42.986,43.832a6.022,6.022,0,0,0,2.869-.717.951.951,0,0,1,1.333.454c1.5,3.831,2.326,4.781,2.523,8.453a.894.894,0,0,1-.925.909h-5.71l-.055,0h-5.71a.894.894,0,0,1-.925-.909c.2-3.672,1.024-4.622,2.523-8.453a.952.952,0,0,1,1.333-.453,6.031,6.031,0,0,0,2.87.717Z" transform="translate(-19.712 -22.934)" fill="rgba(29,29,31,0.9)"/>
      <path id="路径_3393" data-name="路径 3393" d="M31.726,5.636a5.535,5.535,0,1,1-11.069,0,5.535,5.535,0,1,1,11.069,0" transform="translate(-11.191 0)" fill="rgba(29,29,31,0.9)"/>
      <path id="路径_3394" data-name="路径 3394" d="M31.947,32.624a.283.283,0,0,1,0,.408,1.974,1.974,0,0,0-.467.661,24.618,24.618,0,0,0-1.354,2.73.276.276,0,0,1-.263.2H28.036l-.04,0H26.172a.275.275,0,0,1-.262-.2,24.718,24.718,0,0,0-1.357-2.739,1.978,1.978,0,0,0-.456-.651.283.283,0,0,1,0-.407A6.513,6.513,0,0,0,26.17,27.9a6.317,6.317,0,0,0-.373-2.144.278.278,0,0,1,.33-.366,7.215,7.215,0,0,0,1.958.267l-.138,0a7.225,7.225,0,0,0,1.98-.273.278.278,0,0,1,.331.366,6.319,6.319,0,0,0-.378,2.154,6.513,6.513,0,0,0,2.066,4.722" transform="translate(-13.008 -13.532)" fill="rgba(29,29,31,0.9)"/>
    </g>
  </g>
</svg>
