<?xml version="1.0" encoding="UTF-8"?><svg id="_レイヤー_1" xmlns="http://www.w3.org/2000/svg" xmlns:xlink="http://www.w3.org/1999/xlink" viewBox="0 0 824.1 824.1"><defs><style>.cls-1{fill:#ffec00;}.cls-1,.cls-2,.cls-3,.cls-4,.cls-5,.cls-6,.cls-7{isolation:isolate;opacity:.7;}.cls-1,.cls-2,.cls-3,.cls-4,.cls-5,.cls-6,.cls-7,.cls-8{stroke-width:0px;}.cls-2{fill:#f38200;}.cls-3{fill:#b40019;}.cls-4{fill:#1d3070;}.cls-5{fill:#431274;}.cls-6{fill:#008a32;}.cls-7{fill:#006ab8;}.cls-8{fill:url(#_名称未設定グラデーション);}</style><linearGradient id="_名称未設定グラデーション" x1="0" y1="411.95" x2="824.1" y2="411.95" gradientTransform="translate(0 824) scale(1 -1)" gradientUnits="userSpaceOnUse"><stop offset="0" stop-color="#f5f5f7"/><stop offset="1" stop-color="#d2d2d2"/></linearGradient></defs><path class="cls-8" d="m824,256.6c0-9.8,0-19.6-.1-29.4,0-8.2-.1-16.5-.4-24.7-.5-18-1.5-36.1-4.7-53.8-3-17.8-8.7-35-16.9-51.1-16.5-32.4-42.8-58.7-75.2-75.2-16.1-8.1-33.4-13.8-51.2-16.9-17.8-3.2-35.9-4.2-53.8-4.7-8.2-.2-16.5-.3-24.7-.4-9.8-.1-19.6-.1-29.4-.1l-113.6-.3h-85l-111.6.4c-9.8,0-19.6,0-29.4.1-8.3,0-16.5.2-24.8.4-18,.5-36.2,1.5-53.9,4.7-17.8,3-35.1,8.7-51.3,16.8-32.4,16.5-58.8,42.8-75.4,75.2-8.2,16.1-13.8,33.4-16.9,51.2-3.2,17.8-4.2,35.9-4.7,53.8-.2,8.2-.3,16.5-.4,24.7-.1,9.8-.6,21.9-.6,31.7v196l.5,112.4v29.4c.1,8.2.2,16.5.4,24.8.5,18,1.6,36.1,4.8,53.9,3.1,17.8,8.8,35.1,16.9,51.2,16.5,32.4,42.9,58.8,75.4,75.3,16.2,8.1,33.4,13.8,51.3,16.9,17.8,3.2,35.9,4.2,53.9,4.7,8.3.2,16.5.3,24.8.4,9.8.1,19.6.1,29.4.1h339.7c8.2,0,16.5-.2,24.7-.4,18-.5,36.1-1.5,53.8-4.7,17.8-3,35-8.7,51.2-16.9,32.4-16.5,58.7-42.9,75.2-75.3,8.1-16.1,13.8-33.4,16.9-51.2,3.2-17.8,4.2-35.9,4.7-53.9.2-8.2.3-16.5.4-24.8.1-9.8.1-19.6.1-29.4l-.1-310.9"/><path id="_パス_3559-5" class="cls-5" d="m88.4,448.84h0c-15.22-15.59-15.12-40.93.19-56.23l142.53-140.77h0c15.51-15.11,40.59-14.73,56.09.48l233.85,236.5h0c15.51,15.21,15.12,40.45-.38,55.75l-142.34,141.35c-15.51,15.11-40.59,14.73-56.09-.48l-233.85-236.6"/><path id="_パス_3559-5-2" class="cls-4" d="m124.58,343.46h0c-10.91-18.94-4.21-43.42,14.55-54.13l173.74-100.13h0c18.76-10.71,42.98-3.92,54.08,14.73l166.27,287.95h0c11.1,18.74,4.4,42.75-14.55,53.84l-173.64,100.32c-18.76,10.71-42.98,3.92-54.08-14.73L124.58,343.46"/><path id="_パス_3559-5-3" class="cls-7" d="m184.51,250.88h0c-5.17-21.23,7.85-42.94,28.72-48.39l194.51-49.06h0c21.06-5.16,42.41,7.84,48.05,28.88l81.46,322.38h0c5.65,20.94-7.37,42.37-28.53,48.01l-194.7,49.44c-21.06,5.16-42.41-7.84-48.05-28.88l-81.46-322.38"/><path id="_パス_3559-5-4" class="cls-6" d="m552.09,189.58l1.24,332.52c-.19,21.8-17.61,39.78-39.34,39.97l-200.92.57c-21.82-.19-39.82-17.6-39.72-39.31h0l-1.24-332.52c.19-21.8,17.61-39.78,39.34-39.97h0l200.73-.67c21.54-.19,39.72,17.69,39.92,39.4h0"/><path id="_パス_3559-5-5" class="cls-1" d="m639.67,225.66l-81.46,322.28c-5.65,21.04-26.9,34.14-48.05,28.88l-194.7-49.44c-21.06-5.64-34.17-26.87-28.62-48.01h0l81.46-322.28c5.65-21.04,26.9-34.14,48.05-28.88h0l194.6,49.06c20.77,5.55,34.08,27.16,28.72,48.39h0"/><path id="_パス_3559-5-6" class="cls-2" d="m699.4,342.41l-166.27,287.95c-11.1,18.74-35.32,25.44-54.08,14.73l-173.83-100.61c-18.76-11.09-25.46-35.29-14.55-53.84h0l166.27-287.86c11.1-18.74,35.32-25.44,54.08-14.73h0l173.83,100.03c18.76,10.9,25.46,35.38,14.55,54.32h0"/><path id="_パス_3559-5-7" class="cls-3" d="m735.79,447.7l-233.95,236.4c-15.51,15.21-40.59,15.78-56.09.48l-142.63-141.25c-15.22-15.49-15.79-40.55-.38-55.75h0l233.75-236.5c15.51-15.21,40.59-15.78,56.09-.48h0l142.63,140.87c15.6,15.21,15.79,40.64.57,56.23h0"/></svg>