<?xml version="1.0" encoding="UTF-8"?><svg id="_レイヤー_1" xmlns="http://www.w3.org/2000/svg" viewBox="0 0 400 400"><defs><style>.cls-1{fill:none;}.cls-1,.cls-2,.cls-3,.cls-4,.cls-5,.cls-6,.cls-7,.cls-8{stroke-width:0px;}.cls-2{fill:#ffec00;}.cls-2,.cls-3,.cls-4,.cls-5,.cls-6,.cls-7,.cls-8{isolation:isolate;opacity:.7;}.cls-3{fill:#f38200;}.cls-4{fill:#b40019;}.cls-5{fill:#1d3070;}.cls-6{fill:#431274;}.cls-7{fill:#008a32;}.cls-8{fill:#006ab8;}</style></defs><rect class="cls-1" width="400" height="400"/><path id="_パス_3559-5" class="cls-6" d="m21.8,213.6h0c-8.4-8.6-8.3-22.5.1-30.9l78.4-77.5h0c8.5-8.3,22.3-8.1,30.8.3l128.5,130.1h0c8.5,8.4,8.3,22.2-.2,30.7l-78.2,77.7c-8.5,8.3-22.3,8.1-30.8-.3L21.8,213.6"/><path id="_パス_3559-5-2" class="cls-5" d="m41.7,155.6h0c-6-10.4-2.3-23.9,8-29.8l95.5-55.1h0c10.3-5.9,23.6-2.2,29.7,8.1l91.4,158.4h0c6.1,10.3,2.4,23.5-8,29.6l-95.5,55.3c-10.3,5.9-23.6,2.2-29.7-8.1L41.7,155.6"/><path id="_パス_3559-5-3" class="cls-8" d="m74.6,104.7h0c-2.9-11.7,4.3-23.6,15.8-26.6l106.9-27h0c11.6-2.9,23.3,4.3,26.4,15.9l44.8,177.3h0c3.1,11.5-4.1,23.3-15.7,26.4l-107,27.2c-11.6,2.9-23.3-4.3-26.4-15.9l-44.8-177.3"/><path id="_パス_3559-5-4" class="cls-7" d="m276.6,71l.7,182.9c-.1,12-9.7,21.9-21.6,22l-110.4.3c-12-.1-21.9-9.7-21.8-21.6h0l-.7-182.9c.1-12,9.7-21.9,21.6-22h0l110.3-.4c11.8-.1,21.8,9.7,21.9,21.7h0"/><path id="_パス_3559-5-5" class="cls-2" d="m324.8,104.1l-44.8,177.3c-3.1,11.6-14.8,18.8-26.4,15.9l-107-27.2c-11.6-3.1-18.8-14.8-15.7-26.4h0l44.8-177.3c3.1-11.6,14.8-18.8,26.4-15.9h0l106.9,27c11.4,3,18.7,14.9,15.8,26.6h0"/><path id="_パス_3559-5-6" class="cls-3" d="m357.6,155l-91.4,158.4c-6.1,10.3-19.4,14-29.7,8.1l-95.5-55.3c-10.3-6.1-14-19.4-8-29.6h0l91.4-158.4c6.1-10.3,19.4-14,29.7-8.1h0l95.5,55.1c10.3,5.9,14,19.4,8,29.8h0"/><path id="_パス_3559-5-7" class="cls-4" d="m377.6,213l-128.6,130c-8.5,8.4-22.3,8.7-30.8.3l-78.4-77.7c-8.4-8.5-8.7-22.3-.2-30.7h0l128.5-130.1c8.5-8.4,22.3-8.7,30.8-.3h0l78.4,77.5c8.5,8.4,8.7,22.4.3,31h0"/></svg>