<svg xmlns="http://www.w3.org/2000/svg" width="20" height="20" viewBox="0 0 20 20">
  <g id="组_7068" data-name="组 7068" transform="translate(2593 -3123)">
    <g id="组_4385" data-name="组 4385" transform="translate(-2593 3123)">
      <path id="路径_3068" data-name="路径 3068" d="M23.676,20.463a.987.987,0,0,0-1.345.112l-3.37,3.765L15.6,22.981c-.577-.247-1.1-.337-1.4.214-.295.528-.026.865.461,1.135L18.563,26c.641.292,1.128.326,1.32.1l3.985-4.473A.727.727,0,0,0,23.676,20.463Z" transform="translate(-9.084 -14.252)" fill="#707070"/>
      <g id="组_4342" data-name="组 4342">
        <path id="路径_3069" data-name="路径 3069" d="M19.72,35.46a10,10,0,1,1,10-10A10.011,10.011,0,0,1,19.72,35.46Zm0-18.138a8.138,8.138,0,1,0,8.138,8.138A8.141,8.141,0,0,0,19.72,17.322Z" transform="translate(-9.72 -15.46)" fill="#707070"/>
      </g>
    </g>
  </g>
</svg>
