<?xml version="1.0" encoding="UTF-8"?><svg id="_レイヤー_8" xmlns="http://www.w3.org/2000/svg" viewBox="0 0 400 400"><defs><style>.cls-1{opacity:.1;}.cls-2{opacity:.61;}</style></defs><circle id="Oval" class="cls-1" cx="200" cy="200" r="200"/><path id="Symbol" class="cls-2" d="M115.35,284.21c6.6,6.35,17.02,6.41,23.69,.13l60.95-61.07,60.93,60.93c6.62,6.41,17.15,6.35,23.69-.13,6.42-6.53,6.48-16.98,.13-23.57l-60.93-61.07,60.93-60.93c6.34-6.6,6.29-17.05-.13-23.57-6.58-6.41-17.05-6.47-23.69-.13l-60.93,60.96-60.95-61.09c-6.67-6.28-17.09-6.22-23.69,.13-6.35,6.6-6.41,17.02-.13,23.69l61.07,60.93-61.07,61.07c-6.29,6.68-6.23,17.12,.13,23.72Z"/></svg>