<svg id="组_5094" data-name="组 5094" xmlns="http://www.w3.org/2000/svg" width="28" height="28" viewBox="0 0 28 28">
  <path id="路径_3189" data-name="路径 3189" d="M3.594-42.156a6.743,6.743,0,0,1,2.114-5.051,4.259,4.259,0,0,1,2.915-1.312,2.477,2.477,0,0,1,2.085,1.04l3.247,4.569a3.334,3.334,0,0,1,.755,1.84,2.991,2.991,0,0,1-1.072,1.99l-1.072,1.1a.759.759,0,0,0-.227.558,1.482,1.482,0,0,0,.166.6,21.246,21.246,0,0,0,3.337,4.01,22.588,22.588,0,0,0,4.032,3.348,1.428,1.428,0,0,0,.6.166.814.814,0,0,0,.574-.242l1.072-1.055a2.964,2.964,0,0,1,1.993-1.071,3.381,3.381,0,0,1,1.842.724L30.6-27.651a2.361,2.361,0,0,1,1,1.991,4.549,4.549,0,0,1-1.3,2.955,6.521,6.521,0,0,1-5.029,2.187c-4.335,0-9.636-3.362-14-7.72S3.594-37.829,3.594-42.156Z" transform="translate(-3.594 48.519)" fill="#1a73e8"/>
</svg>
