<svg id="smile_heart" xmlns="http://www.w3.org/2000/svg" width="80" height="80" viewBox="0 0 80 80">
  <g id="组_5015" data-name="组 5015" transform="translate(18.609 22.477)">
    <path id="路径_3156" data-name="路径 3156" d="M17.9,26.942l7.561-7.324A4.966,4.966,0,0,0,26.984,16.1a5.023,5.023,0,0,0-1.405-3.583,5.019,5.019,0,0,0-7.106-.1l-.336.317-.317-.336a5.028,5.028,0,0,0-8.63,3.424A5.023,5.023,0,0,0,10.6,19.4Z" transform="translate(-9.19 -10.87)" fill="#d93025"/>
    <path id="路径_3157" data-name="路径 3157" d="M30.742,27.142,38.3,19.819a5.03,5.03,0,0,0,.119-7.106,5.019,5.019,0,0,0-7.106-.1l-.336.317-.317-.336a5.019,5.019,0,0,0-7.106-.1,5.03,5.03,0,0,0-.119,7.106Z" transform="translate(3.382 -10.674)" fill="#d93025"/>
  </g>
  <g id="组_5016" data-name="组 5016" transform="translate(0 0)">
    <path id="路径_3158" data-name="路径 3158" d="M80,39.649A40,40,0,1,1,40.58-.328,40,40,0,0,1,80,39.649Zm-3.52.08A36.47,36.47,0,1,0,39.76,76.1,36.473,36.473,0,0,0,76.478,39.729Z" transform="translate(0.002 0.332)" fill="#d93025"/>
    <path id="路径_3159" data-name="路径 3159" d="M59.426,26.034c-.161.376-.3.732-.462,1.069-3.033,6.2-7.411,11.2-13.8,14.251C36.289,45.59,27.673,44.68,19.5,39.414A29.141,29.141,0,0,1,9.175,27.182a8.429,8.429,0,0,0-.422-.871,1.756,1.756,0,0,1-1.747.238,1.82,1.82,0,0,1-1.125-1.484,2,2,0,0,1,.7-1.979c1.627-1.227,3.254-2.415,4.881-3.662,1-.732,1.828-.772,2.49-.079a2.177,2.177,0,0,1,0,2.91l-.161.158c-.884.732-.884.732-.422,1.841a26.328,26.328,0,0,0,9.259,11.3,19.79,19.79,0,0,0,11.83,3.484,20.729,20.729,0,0,0,13.416-5.384A22.993,22.993,0,0,0,52.8,27.816c.823-1.445,1.547-2.949,2.29-4.434a.591.591,0,0,0-.2-.871,2.063,2.063,0,0,1-.623-2.791,1.593,1.593,0,0,1,2.45-.574q2.561,1.9,5.122,3.86a2.04,2.04,0,0,1,.3,2.989,1.647,1.647,0,0,1-2.089.376A2.885,2.885,0,0,1,59.426,26.034Z" transform="translate(5.741 19.663)" fill="#d93025"/>
  </g>
</svg>
