<svg id="组_6288" data-name="组 6288" xmlns="http://www.w3.org/2000/svg" width="80" height="79.997" viewBox="0 0 80 79.997">
  <path id="路径_3180" data-name="路径 3180" d="M23.477,41.957,10.96,29.339a.649.649,0,0,1,0-.933l3.327-3.368a.625.625,0,0,1,.913,0l8.135,8.2a.633.633,0,0,0,.933-.02l18.38-19.7a.626.626,0,0,1,.913-.02l3.428,3.266a.649.649,0,0,1,.02.933L24.41,41.957A.649.649,0,0,1,23.477,41.957Z" transform="translate(10.511 13.095)" fill="#d93025"/>
  <path id="路径_3181" data-name="路径 3181" d="M79.078,41.176a3.38,3.38,0,0,0-.14-4.779l-2.28-2.12a3.34,3.34,0,0,1-.78-3.8l1.24-2.86a3.367,3.367,0,0,0-1.76-4.439l-2.86-1.2a3.345,3.345,0,0,1-2.02-3.3l.2-3.119A3.336,3.336,0,0,0,67.518,12l-3.1-.16a3.311,3.311,0,0,1-3.02-2.4l-.86-3a3.3,3.3,0,0,0-4.16-2.26l-2.96.92a3.3,3.3,0,0,1-3.66-1.22l-1.84-2.52a3.3,3.3,0,0,0-4.68-.68l-2.46,1.9a3.275,3.275,0,0,1-3.84.12L34.359.962a3.308,3.308,0,0,0-4.64.98l-1.68,2.62A3.3,3.3,0,0,1,24.46,6l-3-.74a3.306,3.306,0,0,0-4.02,2.52l-.68,3.039a3.293,3.293,0,0,1-2.88,2.58l-3.08.36A3.329,3.329,0,0,0,7.88,17.5l.4,3.1a3.346,3.346,0,0,1-1.82,3.419L3.681,25.4A3.376,3.376,0,0,0,2.2,29.938l1.42,2.78a3.371,3.371,0,0,1-.56,3.839l-2.14,2.26a3.38,3.38,0,0,0,.14,4.779l2.28,2.12a3.34,3.34,0,0,1,.78,3.8l-1.24,2.86a3.367,3.367,0,0,0,1.76,4.439l2.86,1.2a3.345,3.345,0,0,1,2.02,3.3l-.2,3.119a3.336,3.336,0,0,0,3.16,3.559l3.1.16a3.311,3.311,0,0,1,3.02,2.4l.86,3a3.3,3.3,0,0,0,4.16,2.26l2.96-.92a3.3,3.3,0,0,1,3.66,1.22l1.84,2.52a3.3,3.3,0,0,0,4.68.68l2.46-1.9a3.275,3.275,0,0,1,3.84-.12l2.58,1.74a3.308,3.308,0,0,0,4.64-.98l1.68-2.62a3.3,3.3,0,0,1,3.58-1.44l3,.74a3.306,3.306,0,0,0,4.02-2.52l.68-3.039a3.293,3.293,0,0,1,2.88-2.58l3.08-.34a3.329,3.329,0,0,0,2.92-3.739l-.4-3.1a3.346,3.346,0,0,1,1.82-3.419l2.78-1.38a3.376,3.376,0,0,0,1.48-4.539l-1.42-2.78a3.371,3.371,0,0,1,.56-3.839ZM40,67.291A27.3,27.3,0,1,1,67.038,40,27.162,27.162,0,0,1,40,67.291Z" transform="translate(0.001 0.003)" fill="#d93025"/>
</svg>
