<?xml version="1.0" encoding="UTF-8"?><svg id="_レイヤー_8" xmlns="http://www.w3.org/2000/svg" viewBox="0 0 400.81 402.51"><defs><style>.cls-1{fill:#707070;}</style></defs><g id="_グループ_8941"><g id="_グループ_4334"><path id="_パス_3058" class="cls-1" d="M336.32,177.52H68.5c-23.19,.33-41.72,19.4-41.39,42.59,0,0,0,0,0,0v51.99l12.13,1.8c8.07,1.36,13.5,8.99,12.15,17.06-1.05,6.22-5.92,11.1-12.15,12.15l-12.13,1.8v51.99c-.33,23.19,18.2,42.26,41.39,42.58H336.32c23.17-.36,41.67-19.41,41.34-42.57v-52.99l-13.55-.67c-8.13-.6-14.23-7.68-13.63-15.8,.54-7.29,6.34-13.09,13.63-13.63l13.44-.67v-53.03c.33-23.13-18.1-42.18-41.23-42.59Zm27.2,81.67c-16.19,1.23-28.32,15.36-27.09,31.56,1.1,14.48,12.61,25.98,27.09,27.09v39.1c.22,15.24-11.95,27.77-27.19,28,0,0,0,0,0,0H68.5c-15.24-.22-27.42-12.75-27.2-27.99,0,0,0,0,0,0v-39.44c16.01-2.67,26.83-17.81,24.16-33.83-2.06-12.39-11.77-22.1-24.16-24.16v-39.39c-.22-15.24,11.95-27.77,27.19-28,0,0,0,0,0,0H336.32c15.24,.22,27.42,12.75,27.2,27.99,0,0,0,0,0,0v39.08Z"/><path id="_パス_3058_-_アウトライン" class="cls-1" d="M68.52,174.78H336.3c24.64,.41,44.31,20.67,43.99,45.31v55.63l-16.05,.81c-6.63,0-12,5.38-11.99,12.01,0,6.62,5.37,11.99,11.99,11.99l16.18,.81v55.63c.29,24.69-19.46,44.96-44.15,45.31H68.52c-24.71-.35-44.47-20.65-44.15-45.36v-54.38l14.48-2.15c6.57-1.16,10.95-7.43,9.79-14-.88-4.99-4.79-8.9-9.79-9.79l-14.48-2.14v-54.37c-.29-24.69,19.46-44.96,44.15-45.31Zm306.3,95.74v-50.42c.33-21.63-16.9-39.45-38.53-39.84H68.52c-21.66,.36-38.94,18.18-38.64,39.84v49.65l9.77,1.45c9.56,1.56,16.05,10.59,14.49,20.15-1.22,7.44-7.05,13.27-14.49,14.49l-9.76,1.45v49.65c-.29,21.65,16.98,39.45,38.63,39.82H336.3c21.66-.36,38.94-18.18,38.64-39.84v-50.41l-10.92-.54c-9.64-.69-16.89-9.07-16.2-18.71,.62-8.68,7.52-15.58,16.2-16.2l10.81-.54ZM68.52,189.39H336.3c16.76,.21,30.19,13.95,30,30.72v41.69l-2.61,.14c-14.68,1.17-25.63,14.03-24.45,28.71,1.04,13.05,11.41,23.41,24.45,24.45l2.62,.14v41.69c.19,16.76-13.24,30.51-30,30.72H68.52c-16.76-.21-30.19-13.95-30-30.72v-41.79l2.36-.35c12.83-2.12,22.21-13.26,22.11-26.27,.25-13.06-9.2-24.29-22.11-26.27l-2.32-.39v-41.79c-.17-16.73,13.22-30.46,29.96-30.69Zm292.22,67.31v-36.61c.19-13.71-10.74-24.99-24.45-25.22H68.52c-13.71,.24-24.64,11.52-24.44,25.23v37.16c6.55,1.5,12.43,5.07,16.78,10.19,4.98,5.89,7.71,13.35,7.69,21.07,.07,14.83-10.06,27.76-24.47,31.25v37.17c-.2,13.71,10.73,24.99,24.44,25.23H336.3c13.71-.24,24.64-11.52,24.44-25.23v-36.61c-17.57-2.78-29.56-19.27-26.78-36.84,2.18-13.79,12.99-24.6,26.78-26.78h0Z"/><rect id="_長方形_1666" class="cls-1" x="108.1" y="342.1" width="9.66" height="25.17"/><path id="_長方形_1666_-_アウトライン" class="cls-1" d="M105.35,339.36h15.15v30.65h-15.15v-30.65Zm9.66,5.5h-4.16v19.67h4.16v-19.67Z"/><rect id="_長方形_1667" class="cls-1" x="108.1" y="299.95" width="9.66" height="25.17"/><path id="_長方形_1667_-_アウトライン" class="cls-1" d="M105.35,297.22h15.15v30.65h-15.15v-30.65Zm9.66,5.5h-4.16v19.67h4.16v-19.67Z"/><rect id="_長方形_1668" class="cls-1" x="108.1" y="256.97" width="9.66" height="25.17"/><path id="_長方形_1668_-_アウトライン" class="cls-1" d="M105.35,254.23h15.15v30.65h-15.15v-30.65Zm9.66,5.5h-4.16v19.67h4.16v-19.67Z"/><rect id="_長方形_1669" class="cls-1" x="108.1" y="214.1" width="9.66" height="25.17"/><path id="_長方形_1669_-_アウトライン" class="cls-1" d="M105.35,211.36h15.15v30.65h-15.15v-30.65Zm9.66,5.5h-4.16v19.67h4.16v-19.67Z"/><path id="_パス_3059" class="cls-1" d="M91.07,143.98l-8.43,4.72,12.25,21.91,8.43-4.61-12.25-22.02Z"/><path id="_パス_3059_-_アウトライン" class="cls-1" d="M92.13,140.23l14.92,26.84-13.23,7.23-14.9-26.66,13.21-7.41Zm7.45,24.68l-9.57-17.2-3.64,2,9.58,17.15,3.63-1.95Z"/><path id="_パス_3060" class="cls-1" d="M388.29,146.39l-18.5-34.27-6.57-12.13-12.15,6.18c-6.91,3.52-15.36,.81-18.94-6.07-3.74-6.85-1.56-15.43,5-19.66l11.5-7.3-6.54-12.09-18.5-34.2c-10.65-20.03-35.53-27.63-55.55-16.97-.28,.15-.55,.3-.83,.45L32.73,144.26c-20.03,11.83-27.13,37.38-16.09,57.85l.66,1.24c2.48-5.02,5.69-9.64,9.53-13.71-3.82-12.55,1.47-26.08,12.8-32.7L274.12,23.06c12.9-7.35,29.31-2.84,36.66,10.06,.16,.28,.31,.56,.46,.84l18.5,34.1c-13.06,8.45-17.41,25.53-10,39.21,7.22,13.55,23.93,18.87,37.66,12l18.56,34.32c5.44,10.01,4.36,22.31-2.74,31.23,3.67,3.15,6.94,6.73,9.74,10.67,11.79-13.67,13.91-33.2,5.35-49.08Z"/><path id="_パス_3060_-_アウトライン" class="cls-1" d="M17.39,209.36l-3.18-6c-11.72-21.78-4.15-48.93,17.15-61.5L265.84,7.97c6.51-3.71,13.87-5.67,21.37-5.68,16.22,.07,31.1,8.99,38.81,23.26l26.29,48.53-13.65,8.67c-5.33,3.44-7.12,10.42-4.09,16,2.86,5.57,9.68,7.78,15.26,4.93l14.55-7.4,7.85,14.5,18.5,34.27c9.1,16.89,6.83,37.64-5.7,52.17l-2.28,2.64-2-2.82c-2.67-3.76-5.79-7.18-9.29-10.19l-2-1.73,1.68-2.08c6.45-8.04,7.42-19.18,2.46-28.22l-17.28-32c-3.63,1.46-7.5,2.21-11.41,2.2-11.48-.04-22.02-6.36-27.46-16.48-7.62-14.08-3.89-31.6,8.8-41.35l-17.34-32c-4.21-7.95-12.44-12.94-21.44-13-4.17,0-8.26,1.1-11.87,3.18L41.02,159.33c-10.26,5.95-15.05,18.2-11.54,29.53l.46,1.51-1.09,1.15c-3.64,3.86-6.7,8.24-9.06,13l-2.4,4.85ZM287.21,7.77c-6.54,.02-12.96,1.75-18.63,5L34.12,146.64c-17.51,10.35-24.64,32.07-16.67,50.78,1.84-3.02,3.95-5.88,6.3-8.52-3.4-13.4,2.52-27.42,14.49-34.33L272.72,20.66c4.45-2.55,9.49-3.9,14.62-3.91,11.02,.06,21.11,6.16,26.3,15.89l19.71,36.39-2.16,1.37c-11.83,7.7-15.75,23.21-9,35.61,4.47,8.33,13.14,13.55,22.6,13.59,3.95,0,7.85-.93,11.38-2.72l2.4-1.21,19.78,36.63c5.55,10.15,4.98,22.53-1.46,32.14,2.19,2.04,4.22,4.24,6.08,6.58,9.2-12.68,10.32-29.51,2.89-43.3l-23.79-43.99-9.75,5c-8.26,4.17-18.34,.91-22.6-7.31-4.41-8.13-1.79-18.28,6-23.26l9.34-5.93-23.86-43.99c-6.73-12.53-19.77-20.37-33.99-20.44Z"/></g><g id="_グループ_4335"><path id="_パス_3061" class="cls-1" d="M256.7,275.48c0,18.87-9.55,29.55-24.16,29.55-16.52,0-24.27-13-24.27-29.21,0-21.23,11.12-30,24.27-30,14.75,0,24.16,10.9,24.16,29.66Zm-33.71,0c0,4.38,0,17,9.55,17s9.55-12.58,9.55-17,0-17.08-9.55-17.08-9.52,12.47-9.52,17.08h-.03Zm9.44,86.84l62.57-114.48h15.39l-62.54,114.48h-15.42Zm101.89-27.41c0,18.87-9.55,29.66-24.16,29.66-16.52,.11-24.27-13.14-24.27-29.21,0-21.35,11.12-30.11,24.27-30.11,14.75-.01,24.19,11,24.19,29.65h-.03Zm-33.71,.01c0,4.38,0,17,9.55,17s9.55-12.58,9.55-17,0-17.08-9.55-17.08-9.47,12.47-9.47,17.07h-.08Z"/><path id="_パス_3061_-_アウトライン" class="cls-1" d="M232.57,243.09c16.59,0,26.9,12.42,26.9,32.4s-10.31,32.29-26.9,32.29c-7.99,.31-15.64-3.28-20.51-9.62-4.53-6.54-6.81-14.38-6.5-22.33-.58-8.97,2.25-17.83,7.92-24.81,4.92-5.27,11.88-8.16,19.09-7.93Zm0,59.2c13.41,0,21.41-10,21.41-26.81s-8-26.92-21.41-26.92-21.53,9.93-21.53,27.26c0,6.21,1.56,26.47,21.53,26.47Zm60.88-57.18h21.64l-65.57,119.99h-21.69l65.62-119.99Zm12.4,5.48h-9.2l-59.57,108.99h9.14l59.63-108.99Zm-73.35,5.08h.16c5.24,0,9.78,3.64,10.93,8.75,1,3.6,1.45,7.33,1.33,11.06,.12,3.71-.33,7.42-1.33,11-1.39,6.06-7.42,9.84-13.48,8.45-4.2-.96-7.48-4.25-8.45-8.45-1-3.58-1.45-7.29-1.33-11-.12-3.74,.32-7.48,1.31-11.09,1.12-5.08,5.62-8.7,10.82-8.72h.04Zm.13,34c4.71,0,6.81-4.39,6.81-14.22s-2.1-14.34-6.81-14.34h-.17c-1.89,0-4.25,.56-5.63,4.91-.79,3.08-1.13,6.25-1,9.43-.07,9.88,2.03,14.27,6.74,14.27l.06-.05Zm77.62,12.81c16.59,0,26.9,12.42,26.9,32.4s-10.31,32.4-26.9,32.4h-.21c-7.97,.29-15.58-3.33-20.37-9.71-4.48-6.53-6.74-14.33-6.44-22.25-.58-9,2.24-17.9,7.92-24.91,4.92-5.24,11.85-8.12,19.04-7.89l.06-.04Zm-.21,59.31h.19c13.43,0,21.43-10.06,21.43-26.92s-8-26.92-21.41-26.92-21.53,10-21.53,27.37c-.3,6.74,1.57,13.4,5.34,19,3.74,4.99,9.7,7.8,15.93,7.52l.05-.05Zm.21-46.73c5.28-.01,9.85,3.65,11,8.8,.99,3.58,1.43,7.29,1.32,11,.12,3.71-.33,7.42-1.33,11-1.39,6.06-7.42,9.84-13.48,8.45-4.2-.96-7.48-4.25-8.45-8.45-1-3.58-1.45-7.29-1.33-11-.12-3.75,.32-7.49,1.33-11.11,1.19-5.05,5.69-8.62,10.88-8.64l.06-.05Zm0,34c4.71,0,6.81-4.39,6.81-14.22s-2.1-14.34-6.81-14.34-6.81,4.42-6.81,14.34,2.01,14.31,6.75,14.31l.06-.09Z"/></g></g></svg>