<?xml version="1.0" encoding="utf-8"?>
<!-- Generator: Adobe Illustrator 27.0.0, SVG Export Plug-In . SVG Version: 6.00 Build 0)  -->
<svg version="1.1" id="_レイヤー_3" xmlns="http://www.w3.org/2000/svg" xmlns:xlink="http://www.w3.org/1999/xlink" x="0px"
	 y="0px" viewBox="0 0 400 400" style="enable-background:new 0 0 400 400;" xml:space="preserve">
<style type="text/css">
	.st0{fill:#707070;}
</style>
<path id="_パス_3239" class="st0" d="M184.9,327.9h183.3c8.5,0.8,17.1-1,24.7-5.1c4.7-3.5,7.4-9.1,7-15
	c-0.3-10.5-3.2-20.8-8.5-29.8c-6.3-11.2-14.7-21.1-24.6-29.2c-11.6-9.6-24.7-17.1-38.9-22.1c-16.4-5.9-33.8-8.8-51.3-8.5
	c-17.5-0.3-34.9,2.6-51.4,8.5c-14.2,5.1-27.4,12.6-39,22.1c-10,8.1-18.4,18-24.7,29.2c-5.3,9.1-8.2,19.3-8.5,29.8
	c-0.4,5.9,2.3,11.5,7,15C167.7,326.9,176.3,328.7,184.9,327.9z M276.8,191.9c10.4,0.1,20.6-2.9,29.3-8.6c9-5.8,16.3-13.9,21.4-23.3
	c5.5-10.2,8.2-21.6,8-33.1c0.2-11.3-2.6-22.4-8.1-32.2c-5.1-9.2-12.6-17-21.5-22.5c-17.8-11.1-40.4-11-58.2,0.1
	c-9,5.6-16.4,13.5-21.5,22.8c-5.5,9.8-8.3,20.9-8.1,32.2c-0.2,11.5,2.6,22.7,8.1,32.8c5.1,9.5,12.5,17.5,21.5,23.3
	C256.2,189,266.4,192,276.8,191.9L276.8,191.9L276.8,191.9z M26.5,327.9h110.5c-3.9-5.9-5.9-12.9-5.6-20c0.2-8.5,1.9-16.9,5.2-24.7
	c3.6-9,8.3-17.5,14.1-25.3c6-8.2,13.1-15.6,21.2-21.8c-19.1-12.4-41.5-18.9-64.3-18.4c-15.2-0.2-30.3,2.5-44.4,8.1
	c-12.5,4.9-24,12.1-33.9,21.2c-8.9,8.1-16.2,17.9-21.6,28.7c-4.8,9.5-7.4,19.9-7.5,30.6c-0.4,6,1.8,11.9,6,16.1
	C12,326.7,19.2,328.6,26.5,327.9L26.5,327.9z M107.6,195.2c9,0.1,17.9-2.5,25.5-7.4c7.9-5.1,14.3-12,18.7-20.3
	c4.8-8.9,7.2-18.8,7-28.8c0.2-9.8-2.2-19.5-7-28.1c-4.4-8.1-10.9-14.8-18.7-19.7c-7.6-4.8-16.5-7.2-25.5-7.2c-9,0-17.8,2.5-25.3,7.4
	c-16.4,10.4-26.2,28.5-25.9,47.9c-0.1,10,2.3,19.8,7.1,28.6c4.5,8.2,10.9,15.1,18.7,20.2C89.8,192.7,98.6,195.3,107.6,195.2z"/>
</svg>
