<?xml version="1.0" encoding="UTF-8"?><svg id="_レイヤー_1" xmlns="http://www.w3.org/2000/svg" xmlns:xlink="http://www.w3.org/1999/xlink" viewBox="0 0 824.1 824.1"><defs><style>.cls-1{fill:#ffec00;}.cls-1,.cls-2,.cls-3,.cls-4,.cls-5,.cls-6,.cls-7{isolation:isolate;opacity:.7;}.cls-1,.cls-2,.cls-3,.cls-4,.cls-5,.cls-6,.cls-7,.cls-8,.cls-9,.cls-10{stroke-width:0px;}.cls-2{fill:#f38200;}.cls-3{fill:#b40019;}.cls-4{fill:#1d3070;}.cls-5{fill:#431274;}.cls-6{fill:#008a32;}.cls-7{fill:#006ab8;}.cls-8{fill:url(#_名称未設定グラデーション);}.cls-9{fill:#2e2624;}.cls-10{fill:#fff;}</style><linearGradient id="_名称未設定グラデーション" x1="0" y1="723.95" x2="824.1" y2="723.95" gradientTransform="translate(0 1136) scale(1 -1)" gradientUnits="userSpaceOnUse"><stop offset="0" stop-color="#000" stop-opacity=".7"/><stop offset="1" stop-color="#231815"/></linearGradient></defs><g id="_レイヤー_2"><path class="cls-10" d="m824,256.6c0-9.8,0-19.6-.1-29.4,0-8.2-.1-16.5-.4-24.7-.5-18-1.5-36.1-4.7-53.8-3-17.8-8.7-35-16.9-51.1-16.5-32.4-42.8-58.7-75.2-75.2-16.1-8.1-33.4-13.8-51.2-16.9-17.8-3.2-35.9-4.2-53.8-4.7-8.2-.2-16.5-.3-24.7-.4-9.8-.1-19.6-.1-29.4-.1l-113.6-.3h-85l-111.6.4c-9.8,0-19.6,0-29.4.1-8.3,0-16.5.2-24.8.4-18,.5-36.1,1.5-53.9,4.7-17.8,3-35.1,8.7-51.3,16.8-32.4,16.5-58.8,42.8-75.4,75.2-8.2,16.1-13.8,33.4-16.9,51.2-3.2,17.7-4.2,35.8-4.7,53.8-.2,8.2-.3,16.5-.4,24.7-.1,9.8-.6,21.9-.6,31.7v196l.5,112.4v29.4c.1,8.2.2,16.5.4,24.8.5,18,1.6,36.1,4.8,53.9,3,17.8,8.8,35.1,16.9,51.2,16.5,32.4,42.9,58.8,75.4,75.3,16.2,8.1,33.4,13.8,51.3,16.9,17.8,3.2,35.9,4.2,53.9,4.7,8.3.2,16.5.3,24.8.4,9.8.1,19.6.1,29.4.1h339.7c8.2,0,16.5-.2,24.7-.4,18-.5,36.1-1.5,53.8-4.7,17.8-3,35-8.7,51.2-16.9,32.4-16.5,58.7-42.9,75.2-75.3,8.1-16.1,13.8-33.4,16.9-51.2,3.2-17.8,4.2-35.9,4.7-53.9.2-8.2.3-16.5.4-24.8.1-9.8.1-19.6.1-29.4l-.1-310.9"/></g><path class="cls-8" d="m824,256.6c0-9.8,0-19.6-.1-29.4,0-8.2-.1-16.5-.4-24.7-.5-18-1.5-36.1-4.7-53.8-3-17.8-8.7-35-16.9-51.1-16.5-32.4-42.8-58.7-75.2-75.2-16.1-8.1-33.4-13.8-51.2-16.9-17.8-3.2-35.9-4.2-53.8-4.7-8.2-.2-16.5-.3-24.7-.4-9.8-.1-19.6-.1-29.4-.1l-113.6-.3h-85l-111.6.4c-9.8,0-19.6,0-29.4.1-8.3,0-16.5.2-24.8.4-18,.5-36.1,1.5-53.9,4.7-17.8,3-35.1,8.7-51.3,16.8-32.4,16.5-58.8,42.8-75.4,75.2-8.2,16.1-13.8,33.4-16.9,51.2-3.2,17.8-4.2,35.9-4.7,53.8-.2,8.2-.3,16.5-.4,24.7-.1,9.8-.6,21.9-.6,31.7v196l.5,112.4v29.4c.1,8.2.2,16.5.4,24.8.5,18,1.6,36.1,4.8,53.9,3.1,17.8,8.8,35.1,16.9,51.2,16.5,32.4,42.9,58.8,75.4,75.3,16.2,8.1,33.4,13.8,51.3,16.9,17.8,3.2,35.9,4.2,53.9,4.7,8.3.2,16.5.3,24.8.4,9.8.1,19.6.1,29.4.1h339.7c8.2,0,16.5-.2,24.7-.4,18-.5,36.1-1.5,53.8-4.7,17.8-3,35-8.7,51.2-16.9,32.4-16.5,58.7-42.9,75.2-75.3,8.1-16.1,13.8-33.4,16.9-51.2,3.2-17.8,4.2-35.9,4.7-53.9.2-8.2.3-16.5.4-24.8.1-9.8.1-19.6.1-29.4l-.1-310.9"/><path id="_パス_3559-5" class="cls-5" d="m88.41,448.84h0c-15.22-15.59-15.12-40.93.19-56.23l142.53-140.77h0c15.51-15.11,40.59-14.73,56.09.48l233.85,236.5h0c15.51,15.21,15.12,40.45-.38,55.75l-142.34,141.35c-15.51,15.11-40.59,14.73-56.09-.48l-233.85-236.6"/><path id="_パス_3559-5-2" class="cls-4" d="m124.59,343.46h0c-10.91-18.94-4.21-43.42,14.55-54.13l173.74-100.13h0c18.76-10.71,42.98-3.92,54.08,14.73l166.27,287.95h0c11.1,18.74,4.4,42.75-14.55,53.84l-173.64,100.32c-18.76,10.71-42.98,3.92-54.08-14.73L124.59,343.46"/><path id="_パス_3559-5-3" class="cls-7" d="m184.51,250.88h0c-5.17-21.23,7.85-42.94,28.72-48.39l194.51-49.06h0c21.06-5.16,42.41,7.84,48.05,28.88l81.46,322.38h0c5.65,20.94-7.37,42.37-28.53,48.01l-194.7,49.44c-21.06,5.16-42.41-7.84-48.05-28.88l-81.46-322.38"/><path id="_パス_3559-5-4" class="cls-6" d="m552.09,189.58l1.24,332.52c-.19,21.8-17.61,39.78-39.34,39.97l-200.92.57c-21.82-.19-39.82-17.6-39.72-39.31h0l-1.24-332.52c.19-21.8,17.61-39.78,39.34-39.97h0l200.73-.67c21.54-.19,39.72,17.69,39.92,39.4h0"/><path id="_パス_3559-5-5" class="cls-1" d="m639.67,225.66l-81.46,322.28c-5.65,21.04-26.9,34.14-48.05,28.88l-194.7-49.44c-21.06-5.64-34.17-26.87-28.62-48.01h0l81.46-322.28c5.65-21.04,26.9-34.14,48.05-28.88h0l194.6,49.06c20.77,5.55,34.08,27.16,28.72,48.39h0"/><path id="_パス_3559-5-6" class="cls-2" d="m699.4,342.41l-166.27,287.95c-11.1,18.74-35.32,25.44-54.08,14.73l-173.83-100.61c-18.76-11.09-25.46-35.29-14.55-53.84h0l166.27-287.86c11.1-18.74,35.32-25.44,54.08-14.73h0l173.83,100.03c18.76,10.9,25.46,35.38,14.55,54.32h0"/><path id="_パス_3559-5-7" class="cls-3" d="m735.78,447.7l-233.95,236.4c-15.51,15.21-40.59,15.78-56.09.48l-142.63-141.25c-15.22-15.49-15.79-40.55-.38-55.75h0l233.75-236.5c15.51-15.21,40.59-15.78,56.09-.48h0l142.63,140.87c15.6,15.21,15.79,40.64.57,56.23h0"/><path id="_パス_3493" class="cls-9" d="m398.86,574.09h26.8c4.7,0,9.3-1.8,13.2-4.6,3.6-2.9,6.3-7.5,7-12l7-30.2c2.1-.5,4-1.3,6.3-2.5,2.3-1.1,4.4-1.8,6.3-2.9l26.1,15.9c4,2.5,8.6,4,13.4,3.6,4.7-.2,9.1-2.3,12.4-5.9l18.2-18.8c3.4-3.2,5.4-7.5,5.7-12,.2-4.7-1.1-9.8-3.6-13.7l-15.8-26.4c1.1-1.8,2.3-4,3.2-5.9.5-2.1,1.3-4,2.1-5.4l30.4-7.5c4.6-1,8.9-3.6,11.6-7,2.9-3.6,4.6-8.2,4.6-13.2v-26.3c.2-4.6-1.8-9.1-4.6-12.7-3.2-3.4-7.5-5.9-11.6-6.9l-30.2-7.5c-1-2.3-1.8-4.6-2.5-6.6-.5-1.8-1.8-3.6-2.5-5.2l16.5-27.4c2.5-4,3.6-8.6,3.2-13.2-.2-4.6-2.5-8.9-5.9-12l-18.8-18.8c-3.4-3.2-7.5-5.4-12.3-6.3-4.4-.5-8.9.5-12.6,2.9l-27.2,16.5c-2.1-1.1-4.4-2.1-6.6-2.9-2.1-.5-4-1.3-5.9-2.3l-7-30.8c-1-4.6-3.4-8.6-7-11.6s-8.2-4.6-13.2-4.4h-26.6c-9.8-1-18.8,6.3-20.4,15.9l-6.9,30.7c-2.3,1-4.7,1.8-6.9,2.5-2.3,1-4.6,1.8-6.6,3.2l-26.7-16.8c-4-2.3-8.6-3.4-12.7-2.9-4.6.5-8.9,2.9-12.4,6.3l-18.2,19.3c-3.4,3.2-5.7,7.5-6.3,12-.5,4.6.2,9.3,2.9,13.2l16.5,27.4c-.5,1.8-1.3,3.4-2.3,5.4-1,2.1-1.8,4.4-2.5,6.3l-30.2,7.5c-9.8,1.3-16.5,9.8-15.9,19.6v26.3c0,4.7,1.8,9.3,4.4,13.2,2.9,3.6,7,6.3,11.6,7l30.4,7.5c1,1.8,1.8,3.6,2.5,5.4.5,1.8,1.8,4,2.3,5.9l-15.4,26.8c-2.9,4-4,8.6-3.6,13.4.5,4.6,2.5,8.9,5.9,12l18,18.8c3.2,3.4,7.5,5.7,12,5.9,4.7.2,9.3-1.1,13.5-3.6l26.8-15.9c2.3,1.1,4.6,2.1,6.6,2.9,2.1,1,4,1.8,5.9,2.3l6.9,30.2c1,4.6,3.6,8.9,7,12,4.1,2.9,8.7,4.4,13.7,4.3h0Zm13.6-110.2c-28.4.2-51.3-22.8-51.7-51.1,0-13.7,5.2-26.8,14.8-36.5,9.8-10,22.8-15.4,36.9-15.4,13.5-.2,26.6,5.2,35.7,15,9.8,9.8,15.4,22.8,15,36.7.3,28.2-22.5,51-50.7,51.3h0Z"/></svg>