<?xml version="1.0" encoding="UTF-8"?><svg id="_レイヤー_1" xmlns="http://www.w3.org/2000/svg" viewBox="0 0 200 192.89"><defs><style>.cls-1{fill:#002643;}.cls-2{fill:#008a32;}.cls-3{fill:#ffec00;}.cls-4{fill:#f38200;}.cls-5{fill:#b40019;}.cls-6{fill:#431274;}.cls-7{fill:#2c9c94;}</style></defs><g id="_グループ_7373"><g id="_グループ_7368"><g id="_グループ_8655"><path id="_パス_3557" class="cls-5" d="M73.75,28.7l23.93,68.26c2,5.71-.99,11.94-6.7,13.95l-52.46,18.38c-5.71,2-11.96-1.01-13.95-6.72h0L.62,54.34c-2-5.71,1.01-11.96,6.7-13.95h0L59.76,22c5.71-2,11.96,1.01,13.95,6.72"/><path id="_パス_3558" class="cls-6" d="M108.63,30.17l-5.31,72.25c-.44,6-5.66,10.51-11.67,10.08l-55.52-4.07c-6-.44-10.51-5.66-10.08-11.67h0L31.37,24.52c.44-6,5.66-10.51,11.67-10.08h0l55.52,4.07c6,.44,10.51,5.66,10.08,11.67"/><path id="_パス_3559" class="cls-2" d="M135.16,32.47l-29.73,87c-1.96,5.74-8.19,8.79-13.94,6.85l-52.54-17.96c-5.73-1.96-8.79-8.19-6.85-13.92h0L61.84,7.43c1.96-5.73,8.19-8.79,13.92-6.85h0l52.54,17.95c5.74,1.96,8.79,8.19,6.83,13.94h0"/><path id="_パス_3560-2" class="cls-4" d="M172.9,58.46l-50.49,76.86c-3.33,5.06-10.12,6.47-15.19,3.15l-55.12-36.18c-5.06-3.33-6.47-10.12-3.15-15.19h0L99.43,10.21c3.33-5.06,10.12-6.47,15.19-3.15h0l55.12,36.18c5.08,3.31,6.51,10.09,3.2,15.17,0,0,0,.02-.02,.03"/><path id="_パス_3561" class="cls-3" d="M196.3,81.83l-68.15,60.51c-4.54,4.02-11.49,3.62-15.53-.92l-40.9-46.05c-4.04-4.54-3.62-11.49,.92-15.53h0L140.79,19.31c4.54-4.02,11.49-3.62,15.53,.92l40.9,46.06c4.04,4.54,3.62,11.49-.92,15.53h0"/></g></g></g><rect class="cls-1" x="13.01" y="77.63" width="170.89" height="115.27" rx="24.34" ry="24.34"/><path class="cls-7" d="M120.42,118.05h-43.94c-10.11,0-18.3,8.19-18.3,18.3s8.19,18.3,18.3,18.3h43.94c10.11,0,18.3-8.19,18.3-18.3s-8.19-18.3-18.3-18.3Z"/></svg>