<?xml version="1.0" encoding="UTF-8"?><svg id="_レイヤー_1" xmlns="http://www.w3.org/2000/svg" viewBox="0 0 311.92 90"><defs><style>.cls-1{fill:none;}.cls-1,.cls-2,.cls-3,.cls-4,.cls-5,.cls-6,.cls-7,.cls-8,.cls-9{stroke-width:0px;}.cls-2{fill:#ffec00;}.cls-2,.cls-3,.cls-4,.cls-5,.cls-6,.cls-7,.cls-8{isolation:isolate;opacity:.7;}.cls-3{fill:#f38200;}.cls-4{fill:#b40019;}.cls-5{fill:#1d3070;}.cls-6{fill:#431274;}.cls-7{fill:#008a32;}.cls-8{fill:#006ab8;}.cls-9{fill:#1d1d1d;}</style></defs><path id="_パス_3564" class="cls-9" d="m127.25,67.88c-.87,2.97-1.93,5.88-3.17,8.71-3.46.82-7.01,1.28-10.56,1.38-13.79,0-20.83-9.18-20.83-19.27,0-11.78,8.95-19.91,21.87-19.91,3.67.1,7.32.54,10.9,1.33.23,2.6.63,6.06,1.1,8.95l-1.79.4c-1.16-3.87-2.54-6.24-5.48-7.44-1.93-.76-3.98-1.13-6.05-1.1-9.52,0-14.54,7.04-14.54,16.57,0,11.14,5.77,18.3,15.12,18.3,5.89,0,8.77-2.71,11.72-8.48l1.73.57h-.02Z"/><path id="_パス_3565" class="cls-9" d="m150.15,77.81c-1.01-.03-1.97-.42-2.71-1.1-.7-.73-1.17-1.62-1.38-2.6-2.31,1.56-5.14,3.7-6.92,3.7-3.9-.02-7.05-3.2-7.04-7.1,0-2.83,1.56-4.68,4.73-5.77,3.52-1.21,7.85-2.71,9.12-3.75v-1.16c0-4.1-2.08-6.46-5.08-6.46-1.07-.02-2.07.48-2.71,1.33-.73,1.16-1.25,2.43-1.56,3.75-.14.8-.86,1.38-1.68,1.33-1.35-.11-2.43-1.18-2.54-2.53,0-.82.75-1.5,1.9-2.31,2.49-1.87,5.31-3.23,8.31-4.04,4.19-.13,7.69,3.16,7.82,7.34,0,.3,0,.6-.02.91v11.14c0,2.65.97,3.46,2.02,3.46.73-.05,1.44-.26,2.08-.63l.57,1.62-4.9,2.89v-.02h-.01Zm-4.21-14.6c-1.27.63-4.04,1.84-5.37,2.43-2.19.97-3.52,2.08-3.52,4.22-.14,2.31,1.63,4.3,3.95,4.44h.21c1.77-.12,3.45-.86,4.73-2.08v-9h0Z"/><path id="_パス_3566" class="cls-9" d="m170.76,77.12h-13.27v-1.62c3.64-.35,3.98-.63,3.98-4.39v-11.99c0-3.81-.23-3.98-3.58-4.39v-1.44c2.8-.42,5.54-1.22,8.13-2.37v6.35c2.02-3,4.44-6.18,7.32-6.18,1.63-.2,3.12.95,3.33,2.58,0,.06.02.12.02.18-.05,1.33-.79,2.54-1.95,3.2-.46.35-1.1.29-1.5-.11-.62-.83-1.57-1.35-2.6-1.44-1.21,0-3.35,1.79-4.62,4.73v10.85c0,3.81.29,4.1,4.73,4.44v1.61-.02h0Z"/><path id="_パス_3567" class="cls-9" d="m207.05,75.68c-3.03.48-6.02,1.2-8.95,2.13v-3.75c-1.04.63-2.54,1.44-3.58,2.08-1.37.91-2.92,1.48-4.56,1.67-4.62,0-10.74-4.62-10.74-12.69s7.04-14.02,14.95-14.02c1.34-.02,2.66.2,3.92.63v-8.49c0-3.7-.4-3.81-4.5-4.16v-1.5c3.07-.41,6.11-1.07,9.07-1.97v34.8c0,3,.4,3.41,2.54,3.52l1.84.11v1.64Zm-8.95-19.39c-1.41-1.92-3.67-3.02-6.05-2.94-2.77,0-7.67,1.84-7.67,10.16,0,6.98,4.32,10.68,8.02,10.74,2.07-.11,4.06-.83,5.71-2.08v-15.87h-.01Z"/><path id="_パス_3568" class="cls-9" d="m224.02,65.81h-13.27l.4-3.52h13.27l-.4,3.52Z"/><path id="_パス_3569" class="cls-9" d="m249.87,48.38c-.97-3.81-2.6-7.56-8.02-7.56-4.5,0-6.06,3.29-6.06,6.29,0,3.98,2.54,6,7.32,8.48,6.92,3.58,9.92,6.24,9.92,11.72,0,6.06-5.25,10.68-12.69,10.68-3.04-.08-6.03-.72-8.83-1.9-.68-2.86-1.2-5.74-1.56-8.65l1.79-.46c1.16,3.87,3.7,8.89,9.7,8.89,3.5.2,6.49-2.48,6.69-5.98.02-.22.02-.44,0-.66,0-4.44-2.37-6.24-7.44-9-6.06-3.29-9.46-6.06-9.46-11.43s4.27-9.98,11.89-9.98c2.57.1,5.12.47,7.62,1.1.23,2.08.46,4.39.92,8.13l-1.78.35h0v-.02Z"/><path id="_パス_3570" class="cls-9" d="m276.06,77.81c-1.01-.03-1.97-.42-2.71-1.1-.7-.73-1.17-1.62-1.38-2.6-2.31,1.56-5.14,3.7-6.92,3.7-3.9-.02-7.05-3.2-7.04-7.1,0-2.83,1.56-4.68,4.73-5.77,3.52-1.21,7.85-2.71,9.12-3.75v-1.16c0-4.1-2.08-6.46-5.08-6.46-1.07-.02-2.07.48-2.71,1.33-.73,1.16-1.25,2.43-1.56,3.75-.14.8-.86,1.38-1.68,1.33-1.35-.11-2.43-1.19-2.54-2.54,0-.82.75-1.5,1.9-2.31,2.49-1.87,5.31-3.23,8.31-4.04,4.19-.13,7.69,3.16,7.82,7.34,0,.3,0,.6-.02.91v11.14c0,2.65.97,3.46,2.02,3.46.73-.05,1.44-.26,2.08-.63l.57,1.62-4.9,2.89v-.02h-.01Zm-4.21-14.6c-1.27.63-4.04,1.84-5.37,2.43-2.19.97-3.52,2.08-3.52,4.22-.14,2.31,1.63,4.3,3.95,4.44h.21c1.77-.12,3.44-.86,4.73-2.08v-9h0Z"/><path id="_パス_3571" class="cls-9" d="m299.95,77.12v-1.62c3.35-.35,3.7-.75,3.7-4.68v-9.52c0-4.04-1.44-6.75-5.25-6.75-2.43.2-4.7,1.26-6.41,3v13.51c0,3.98.35,4.1,3.75,4.44v1.62h-12.46v-1.62c3.81-.4,4.16-.63,4.16-4.44v-11.89c0-3.75-.4-3.92-3.52-4.44v-1.5c2.78-.42,5.49-1.19,8.08-2.31v4.56c1.16-.82,2.43-1.68,3.92-2.65,1.39-1.04,3.06-1.63,4.79-1.73,4.62,0,7.51,3.41,7.51,9v10.97c0,3.92.35,4.1,3.7,4.44v1.62h-11.97Z"/><path id="_パス_11732" class="cls-9" d="m119.45,11.73c-.13.66-.34,1.29-.63,1.9-.57,1.45-1.28,2.85-2.12,4.17-1.5-1.12-3.05-2.16-4.66-3.11l-.89.95c1.69.94,3.31,2.03,4.81,3.24-1.84,2.55-4.29,4.6-7.13,5.98.39.28.7.65.93,1.07,2.83-1.51,5.3-3.64,7.2-6.23,1.44,1.15,2.74,2.46,3.91,3.88l1.01-1.11c-1.29-1.37-2.67-2.65-4.12-3.85,1.05-1.65,1.93-3.4,2.63-5.22.14-.39.32-.75.55-1.09l-1.5-.57v-.02h.01Zm8.3,2.22c1.58.97,3.01,2.15,4.26,3.51l.93-1.11c-1.3-1.28-2.75-2.42-4.32-3.36l-.88.97h.01Zm.13,11.63c.36-.11.71-.21,1.07-.29,2.38-.43,4.65-1.34,6.67-2.67,2.43-1.72,4.32-4.08,5.46-6.83-.43-.27-.8-.63-1.08-1.06-1.22,3.56-3.86,6.45-7.3,7.97-1.64.76-3.4,1.22-5.21,1.38,0,0,.39,1.5.39,1.5Zm19.5-12.97c.02.1.02.19.02.29-.02.57-.08,1.13-.18,1.69-.29,2.15-.91,4.26-1.84,6.21-.63,1.34-1.51,2.54-2.59,3.54.44.23.82.55,1.14.93,2.52-2.63,3.98-6.07,4.72-11.17.04-.42.11-.82.23-1.22l-1.49-.27h-.01Zm5.14.27c.11.39.19.78.23,1.18.5,4.14,2.19,8.05,4.87,11.24.3-.4.68-.74,1.11-1.01-2-2.05-3.41-4.6-4.07-7.39-.42-1.4-.69-2.84-.82-4.3l-1.32.27h0Zm2.33-.77c.71.88,1.31,1.85,1.77,2.88l.91-.52c-.48-1.01-1.08-1.95-1.79-2.81l-.89.45h0Zm2.06-.91c.7.88,1.3,1.83,1.77,2.85l.89-.49c-.48-1.01-1.08-1.97-1.79-2.83l-.88.47h0Zm3.64,8.28c.74-.07,1.48-.09,2.22-.07h10.38c.73-.02,1.46,0,2.18.07v-1.45c-.72.08-1.44.11-2.17.09h-10.4c-.74.03-1.48,0-2.22-.11v1.47h0Zm30.17,5.31c-1.81-1.97-3.81-3.76-5.96-5.35,1.19-1.53,2.18-3.2,2.93-5,.1-.23.21-.46.34-.68l-.79-.93c-.32.07-.64.1-.97.09l-6.36.07h-.47c-.48,0-.94-.02-1.41-.09l.04,1.43c.61-.09,1.22-.13,1.84-.13l5.98-.09c.21-.02.27-.02.43-.04-.09.2-.09.23-.14.36-.96,2.26-2.35,4.32-4.08,6.07-1.69,1.75-3.7,3.13-5.94,4.07.37.32.67.73.88,1.18,2.65-1.29,5.01-3.12,6.92-5.37,2.11,1.62,4.03,3.48,5.73,5.53l1.01-1.13h.02Zm-2.95-13.36c.73.86,1.35,1.82,1.83,2.85l.91-.54c-.5-1-1.12-1.92-1.84-2.77l-.89.45h-.01Zm2.04-.97c.72.86,1.33,1.81,1.83,2.81l.89-.5c-.51-1-1.13-1.93-1.84-2.79l-.88.48h0Zm7.16,4.37c-.65.02-1.29-.02-1.93-.13l.02,1.36c.63-.08,1.26-.11,1.9-.09l3.26-.02c-.1,1.47-.47,2.92-1.11,4.26-1,2.03-2.64,3.68-4.66,4.71.37.29.68.65.91,1.06,1.95-1.15,3.57-2.78,4.69-4.75.83-1.65,1.32-3.44,1.43-5.28l5.01-.02c.02,2.12-.13,4.26-.45,6.36-.34,1.78-.63,2.21-1.5,2.21-.79-.03-1.57-.19-2.31-.47.14.36.2.74.2,1.13v.21c.73.18,1.47.29,2.22.3,1.61,0,2.15-.65,2.59-3.09.3-2.08.47-4.16.5-6.27-.02-.36.02-.73.14-1.07l-.67-.57c-.38.12-.79.17-1.18.13l-4.47.02c.05-.5.05-.72.09-1.27-.02-.77.04-1.54.14-2.31l-1.45-.04c.05.31.08.62.07.93,0,.79-.04,1.77-.11,2.68l-3.36.02h.03Zm15.13,4.66c.73-.07,1.47-.09,2.21-.07h10.38c.73-.02,1.46,0,2.18.07v-1.45c-.72.08-1.44.11-2.17.09h-10.4c-.74.03-1.48,0-2.22-.11v1.47h.02,0Zm23.18,6.7c-.08-.63-.11-1.26-.09-1.9v-5.39c0-.36-.02-.71-.07-1.06l.04-.02c.17.13.36.23.55.3,2.34.95,4.57,2.14,6.67,3.54l.77-1.32c-2.53-1.5-5.2-2.77-7.97-3.78v-3.34c-.03-.62,0-1.25.09-1.86h-1.54c.09.6.13,1.22.11,1.83v11.12c.02.63-.02,1.25-.11,1.88h1.54v-.02h0v.02Zm4.44-13.63c.73.87,1.35,1.82,1.84,2.85l.89-.54c-.5-1-1.12-1.93-1.84-2.77l-.89.47h0Zm2.04-.97c.73.86,1.34,1.81,1.83,2.83l.89-.52c-.51-1-1.13-1.93-1.85-2.79,0,0-.87.48-.87.48Zm20.19.84c-.22.08-.73.13-1.52.13h-9.61c-.71.02-1.42-.02-2.13-.13v1.38c.7-.08,1.41-.11,2.12-.09h10.17c-.51,1-1.19,1.9-2,2.67-.81.76-1.78,1.35-2.83,1.7.36.28.65.63.88,1.02,2.28-1.04,4.13-2.84,5.22-5.1.11-.26.26-.5.43-.72l-.72-.86h-.01Zm-7.8,3.12c.06.32.08.64.07.97,0,3.49-.7,5.31-2.59,6.83-.96.78-2.08,1.34-3.27,1.64.36.34.63.75.82,1.2,1.79-.57,3.39-1.64,4.58-3.09,1.32-1.83,1.93-4.06,1.77-6.3-.02-.42,0-.84.07-1.25h-1.45Zm23.39-2.41h-8.81c-.67.02-1.35-.02-2.02-.11v1.43c.67-.08,1.34-.12,2-.11h9.12c-.51,2.35-1.59,4.54-3.14,6.37-1.77,1.93-4.04,3.33-6.55,4.07.38.34.68.76.88,1.23,2.47-.88,4.7-2.34,6.51-4.24,1.8-2.03,3.06-4.47,3.65-7.13l.04-.11c.2.06.42.09.63.09,1.13,0,2.04-.91,2.04-2.04h0c0-1.12-.91-2.02-2.03-2.03-1.13,0-2.04.91-2.04,2.04h0c0,.18.02.36.07.52h-.35v.02Zm2.33-1.81c.7,0,1.27.57,1.27,1.27s-.56,1.28-1.27,1.29h0c-.71,0-1.28-.57-1.29-1.28h0c0-.71.57-1.28,1.28-1.28h.02,0Zm6.48.51c.06.5.08,1,.07,1.5v4.78c0,.5-.02,1.01-.07,1.5h1.49c-.06-.49-.08-.99-.07-1.49v-4.83c-.02-.5,0-.99.07-1.49h-1.49v.02h0Zm7.91,0c.07.52.09,1.05.07,1.57v2.03c.08,1.53,0,3.05-.25,4.56-.31,1.64-1.38,3.03-2.86,3.78-1.05.6-2.21,1.01-3.4,1.22.33.36.59.77.75,1.23,1.13-.29,2.23-.73,3.26-1.29,1.62-.82,2.84-2.25,3.4-3.98.39-1.79.54-3.63.45-5.46v-2.12c-.02-.52,0-1.04.09-1.56l-1.5.02h-.01Z"/><rect class="cls-1" width="90" height="90"/><path id="_パス_3559-5" class="cls-6" d="m4.9,48.06h0c-1.89-1.94-1.87-5.06.02-6.95l17.64-17.44h0c1.91-1.87,5.02-1.82,6.93.07l28.91,29.27h0c1.91,1.89,1.87,4.99-.05,6.91l-17.59,17.48c-1.91,1.87-5.02,1.82-6.93-.07L4.9,48.06"/><path id="_パス_3559-5-2" class="cls-5" d="m9.38,35.01h0c-1.35-2.34-.52-5.38,1.8-6.71l21.49-12.4h0c2.32-1.33,5.31-.49,6.68,1.82l20.56,35.64h0c1.37,2.32.54,5.29-1.8,6.66l-21.49,12.44c-2.32,1.33-5.31.5-6.68-1.82L9.38,35.01"/><path id="_パス_3559-5-3" class="cls-8" d="m16.78,23.56h0c-.65-2.63.97-5.31,3.56-5.98l24.05-6.07h0c2.61-.65,5.24.97,5.94,3.58l10.08,39.89h0c.7,2.59-.92,5.24-3.53,5.94l-24.07,6.12c-2.61.65-5.24-.97-5.94-3.58l-10.08-39.89"/><path id="_パス_3559-5-4" class="cls-7" d="m62.24,15.97l.16,41.15c-.02,2.7-2.18,4.93-4.86,4.95l-24.84.07c-2.7-.02-4.93-2.18-4.91-4.86h0l-.16-41.15c.02-2.7,2.18-4.93,4.86-4.95h0l24.82-.09c2.66-.02,4.91,2.18,4.93,4.88h0"/><path id="_パス_3559-5-5" class="cls-2" d="m73.08,23.42l-10.08,39.89c-.7,2.61-3.33,4.23-5.94,3.58l-24.07-6.12c-2.61-.7-4.23-3.33-3.53-5.94h0l10.08-39.89c.7-2.61,3.33-4.23,5.94-3.58h0l24.05,6.07c2.56.68,4.21,3.35,3.55,5.98h0"/><path id="_パス_3559-5-6" class="cls-3" d="m80.46,34.87l-20.56,35.64c-1.37,2.32-4.36,3.15-6.68,1.82l-21.49-12.44c-2.32-1.37-3.15-4.36-1.8-6.66h0l20.57-35.64c1.37-2.32,4.36-3.15,6.68-1.82h0l21.49,12.4c2.32,1.33,3.15,4.36,1.8,6.71h0"/><path id="_パス_3559-5-7" class="cls-4" d="m84.96,47.93l-28.94,29.25c-1.91,1.89-5.02,1.96-6.93.07l-17.64-17.48c-1.89-1.91-1.96-5.02-.04-6.91h0l28.91-29.27c1.91-1.89,5.02-1.96,6.93-.07h0l17.64,17.44c1.91,1.89,1.96,5.04.07,6.98h0"/></svg>