<svg xmlns="http://www.w3.org/2000/svg" width="50" height="50" viewBox="0 0 50 50">
  <path id="路径_3331" data-name="路径 3331" d="M28.314,55.7a23.945,23.945,0,0,0,9.65-1.969A25.63,25.63,0,0,0,51.345,40.345a24.742,24.742,0,0,0-.013-19.313,25.772,25.772,0,0,0-5.417-7.99,25.148,25.148,0,0,0-7.977-5.4A24.217,24.217,0,0,0,28.288,5.7a24.125,24.125,0,0,0-9.637,1.943A25.558,25.558,0,0,0,5.257,21.032a24.742,24.742,0,0,0,.013,19.313A25.751,25.751,0,0,0,18.651,53.727,23.917,23.917,0,0,0,28.314,55.7Zm-2.7-13.047a2.445,2.445,0,0,1-1.235-.309,3.652,3.652,0,0,1-1.029-.926l-6.022-7.385a2.6,2.6,0,0,1-.643-1.647,2.13,2.13,0,0,1,.6-1.531,2,2,0,0,1,1.505-.63,2.134,2.134,0,0,1,.991.232,2.7,2.7,0,0,1,.888.823l4.838,6.176L35.725,21.058a2.163,2.163,0,0,1,1.853-1.209,2.368,2.368,0,0,1,1.531.553,1.781,1.781,0,0,1,.682,1.454,2.01,2.01,0,0,1-.193.836,5.743,5.743,0,0,1-.45.811l-11.4,17.885A2.428,2.428,0,0,1,25.612,42.648Z" transform="translate(-3.301 -5.695)" fill="#707070"/>
</svg>
