<?xml version="1.0" encoding="UTF-8"?><svg id="_レイヤー_1" xmlns="http://www.w3.org/2000/svg" viewBox="0 0 198.43 198.43"><defs><style>.cls-1{fill:#1d1d1f;}</style></defs><path id="_パス_11587" class="cls-1" d="M99.25,198.42c13.17,.08,26.21-2.58,38.29-7.81,23.82-10.27,42.81-29.26,53.1-53.08,10.38-24.5,10.38-52.16,0-76.66-5.11-11.83-12.4-22.59-21.5-31.71-9.07-9.12-19.82-16.41-31.65-21.45C125.39,2.55,112.35-.08,99.2,0c-13.14-.08-26.16,2.54-38.24,7.71C37.07,17.95,18.03,36.97,7.76,60.84c-10.37,24.52-10.34,52.19,.07,76.69,10.32,23.8,29.3,42.79,53.1,53.11,12.1,5.23,25.15,7.88,38.32,7.78Zm-.1-15.52c-7.35,0-14.66-1-21.75-2.96-7.16-1.95-14.03-4.8-20.47-8.48-6.33-3.59-12.09-8.1-17.11-13.38,3.75-5.66,8.64-10.48,14.35-14.15,6.29-4.06,13.18-7.09,20.42-8.98,8.01-2.13,16.27-3.19,24.56-3.14,8.23-.05,16.44,.98,24.41,3.06,7.24,1.87,14.13,4.89,20.42,8.93,5.77,3.68,10.68,8.55,14.43,14.28-4.96,5.29-10.69,9.8-17,13.38-6.44,3.68-13.32,6.53-20.47,8.48-7.09,1.96-14.42,2.95-21.78,2.96Zm0-67.51c-6.01,0-11.89-1.72-16.95-4.96-5.05-3.26-9.18-7.76-11.99-13.07-3.03-5.77-4.56-12.22-4.44-18.74-.07-6.27,1.46-12.46,4.44-17.98,2.84-5.31,6.99-9.8,12.05-13.05,10.3-6.54,23.45-6.54,33.75,0,5.06,3.27,9.21,7.76,12.08,13.05,3.01,5.51,4.56,11.7,4.5,17.98,.11,6.55-1.42,13.02-4.44,18.83-2.79,5.36-6.92,9.9-11.99,13.18-5.06,3.25-10.98,4.91-16.99,4.77Z"/></svg>