<svg xmlns="http://www.w3.org/2000/svg" width="30" height="30" viewBox="0 0 30 30">
  <g id="组_7147" data-name="组 7147" transform="translate(-283 -56)">
    <rect id="矩形_1661" data-name="矩形 1661" width="30" height="30" rx="15" transform="translate(283 56)" fill="rgba(29,29,31,0.1)"/>
    <path id="路径_3355" data-name="路径 3355" d="M12.531,26.377h2.251a1.77,1.77,0,0,0,1.79-1.4l.469-2.024.32-.118,1.76,1.085a1.746,1.746,0,0,0,1.171.279,1.815,1.815,0,0,0,1.083-.553l1.556-1.556A1.81,1.81,0,0,0,23.493,21a1.761,1.761,0,0,0-.279-1.175l-1.1-1.749.117-.31,2.02-.46a1.8,1.8,0,0,0,1.016-.645,1.823,1.823,0,0,0,.38-1.158V13.315a1.841,1.841,0,0,0-.375-1.158,1.78,1.78,0,0,0-1.021-.645l-2-.481-.129-.32,1.1-1.749a1.745,1.745,0,0,0,.28-1.169,1.854,1.854,0,0,0-.562-1.1L21.386,5.138a1.77,1.77,0,0,0-1.072-.552,1.816,1.816,0,0,0-1.182.268l-1.75,1.075L17.041,5.8l-.469-2.024a1.815,1.815,0,0,0-.638-1.018,1.8,1.8,0,0,0-1.152-.381H12.531a1.8,1.8,0,0,0-1.153.382,1.817,1.817,0,0,0-.638,1.017L10.272,5.8l-.342.129L8.169,4.853a1.794,1.794,0,0,0-1.177-.267,1.771,1.771,0,0,0-1.078.552L4.359,6.694a1.907,1.907,0,0,0-.556,1.1,1.722,1.722,0,0,0,.274,1.169l1.1,1.749-.128.32-1.988.481a1.791,1.791,0,0,0-1.406,1.8V15.5a1.807,1.807,0,0,0,.385,1.158,1.827,1.827,0,0,0,1.021.645l2.009.46.117.31-1.1,1.749A1.731,1.731,0,0,0,3.813,21a1.864,1.864,0,0,0,.556,1.093l1.556,1.556a1.819,1.819,0,0,0,1.089.553,1.752,1.752,0,0,0,1.176-.279l1.75-1.085.332.118.468,2.024a1.77,1.77,0,0,0,1.791,1.4Zm.229-1.882a.286.286,0,0,1-.314-.257l-.665-2.746a6.474,6.474,0,0,1-1-.328,5.694,5.694,0,0,1-.854-.443l-2.414,1.49a.307.307,0,0,1-.418-.057L5.851,20.9a.283.283,0,0,1-.045-.4L7.3,18.1q-.209-.378-.414-.853a6.2,6.2,0,0,1-.331-.991L3.786,15.6a.283.283,0,0,1-.246-.315V13.519a.283.283,0,0,1,.246-.315l2.754-.665a5.842,5.842,0,0,1,.343-1.034q.215-.486.391-.82L5.8,8.278A.3.3,0,0,1,5.83,7.86L7.079,6.632a.334.334,0,0,1,.428-.056L9.9,8.043a6.111,6.111,0,0,1,.865-.433,7.163,7.163,0,0,1,1.024-.338l.655-2.757a.283.283,0,0,1,.314-.246h1.794a.282.282,0,0,1,.313.246l.667,2.767a7.129,7.129,0,0,1,1,.341,8.2,8.2,0,0,1,.867.431l2.4-1.476a.321.321,0,0,1,.418.056l1.249,1.228a.3.3,0,0,1,.035.418l-1.478,2.4q.187.333.4.82a5.819,5.819,0,0,1,.342,1.034l2.745.667a.286.286,0,0,1,.256.315v1.768a.286.286,0,0,1-.256.315l-2.755.656a6.251,6.251,0,0,1-.331.992q-.205.476-.413.851l1.476,2.4a.282.282,0,0,1-.045.4l-1.239,1.249a.294.294,0,0,1-.407.055l-2.41-1.486a6.573,6.573,0,0,1-.857.442,6.254,6.254,0,0,1-1,.329l-.667,2.746a.285.285,0,0,1-.313.257Zm.9-5.878a4.063,4.063,0,0,0,2.118-.57,4.349,4.349,0,0,0,1.532-1.533,4.092,4.092,0,0,0,.575-2.137,4.04,4.04,0,0,0-.575-2.119,4.365,4.365,0,0,0-1.532-1.527,4.063,4.063,0,0,0-2.118-.57,4.121,4.121,0,0,0-2.13.57,4.337,4.337,0,0,0-1.542,1.527,4.209,4.209,0,0,0,0,4.246,4.38,4.38,0,0,0,1.537,1.538A4.083,4.083,0,0,0,13.661,18.617Zm0-1.819a2.311,2.311,0,0,1-1.21-.327,2.471,2.471,0,0,1-.872-.879,2.348,2.348,0,0,1-.326-1.216,2.294,2.294,0,0,1,.326-1.2,2.489,2.489,0,0,1,.872-.872,2.311,2.311,0,0,1,1.209-.326,2.267,2.267,0,0,1,1.186.327,2.445,2.445,0,0,1,.866.873,2.324,2.324,0,0,1,.321,1.2,2.349,2.349,0,0,1-.321,1.211,2.487,2.487,0,0,1-.866.879A2.24,2.24,0,0,1,13.661,16.8Z" transform="translate(284.35 56.623)" fill="#707070"/>
  </g>
</svg>
